<?xml version="1.0" encoding="UTF-8" standalone="no"?>
<svg
   width="3235.1562"
   height="4763.6411"
   viewBox="0 0 3235.1562 4763.6411"
   version="1.1"
   id="svg1"
   sodipodi:docname="cochesito ole ole.svg"
   xmlns:inkscape="http://www.inkscape.org/namespaces/inkscape"
   xmlns:sodipodi="http://sodipodi.sourceforge.net/DTD/sodipodi-0.dtd"
   xmlns="http://www.w3.org/2000/svg"
   xmlns:svg="http://www.w3.org/2000/svg">
  <defs
     id="defs1" />
  <sodipodi:namedview
     id="namedview1"
     pagecolor="#ffffff"
     bordercolor="#000000"
     borderopacity="0.25"
     inkscape:showpageshadow="2"
     inkscape:pageopacity="0.0"
     inkscape:pagecheckerboard="0"
     inkscape:deskcolor="#d1d1d1" />
  <path
     style="fill:#000000;stroke-width:1.40703"
     d="m 1584.8675,4763.4653 c -4.6432,-0.1899 -16.0402,-1.2621 -25.3266,-2.3825 -9.2864,-1.1206 -26.6984,-2.4266 -38.6933,-2.9021 -22.4937,-0.892 -56.2278,-3.845 -71.055,-6.2201 -4.6432,-0.7437 -21.7386,-2.3682 -37.9898,-3.6097 -27.5104,-2.1018 -37.3259,-3.2726 -70.3515,-8.3917 -6.9648,-1.0795 -21.2109,-2.9971 -31.6581,-4.2612 -10.4472,-1.2641 -24.3768,-3.1875 -30.9547,-4.2744 -6.5778,-1.0868 -18.6079,-2.9783 -26.7335,-4.2034 -16.4858,-2.4853 -52.0748,-8.8185 -78.7937,-14.0216 -42.7837,-8.3313 -49.4368,-9.6653 -64.7234,-12.9783 -8.8994,-1.9289 -22.1958,-4.746 -29.5476,-6.2605 -7.3517,-1.5144 -19.6984,-4.3752 -27.4371,-6.357 -7.7386,-1.9818 -19.4521,-4.8261 -26.03,-6.3207 -6.5779,-1.4944 -16.7085,-3.9411 -22.5125,-5.437 -5.80402,-1.496 -17.20092,-4.4179 -25.32652,-6.4935 -8.1256,-2.0753 -19.5225,-5.2893 -25.3265,-7.1419 -5.804,-1.8526 -15.6181,-4.6761 -21.809,-6.2742 -6.1909,-1.5981 -15.6884,-4.46 -21.1054,-6.3597 -5.4171,-1.8997 -16.4975,-5.2254 -24.6231,-7.3902 -8.1256,-2.165 -17.3064,-5.0282 -20.4019,-6.3626 -3.0955,-1.3344 -13.2261,-4.6152 -22.5125,-7.2904 -9.2864,-2.6752 -18.1506,-5.6547 -19.6984,-6.6211 -1.5477,-0.9663 -6.613,-2.9377 -11.2562,-4.3809 -4.6431,-1.4432 -12.5338,-4.1769 -17.5348,-6.0748 -5.0012,-1.8978 -13.8655,-5.1975 -19.6985,-7.3322 -20.9945,-7.6838 -43.8565,-17.088 -66.8868,-27.5136 -16.6167,-7.5224 -23.7993,-10.6967 -32.0435,-14.1616 -11.5294,-4.8457 -50.8073,-24.1226 -65.0415,-31.9212 -6.1909,-3.3919 -16.3215,-8.9028 -22.5125,-12.2465 -6.1909,-3.3437 -13.6181,-7.5601 -16.5046,-9.3698 -2.8866,-1.8097 -5.6112,-3.2904 -6.0547,-3.2904 -0.4435,0 -5.1711,-2.8492 -10.5059,-6.3316 -5.3347,-3.4824 -10.1116,-6.3316 -10.6155,-6.3316 -3.241,0 -85.6758,-57.4471 -95.8098,-66.7678 -0.8809,-0.8103 -4.9345,-4.0058 -9.0078,-7.1013 -4.0734,-3.0954 -8.4501,-6.5778 -9.726,-7.7386 -1.2757,-1.1608 -7.3386,-6.5427 -13.4728,-11.9598 -23.9831,-21.1792 -36.3471,-33.7135 -63.126,-63.9963 -15.5174,-17.5478 -37.4371,-50.5394 -37.4371,-56.3471 0,-1.6824 -4.4953,-10.8673 -9.9896,-20.4108 -10.8581,-18.8606 -17.7459,-36.7575 -26.785,-69.5967 -5.4755,-19.8933 -5.6354,-21.1209 -6.4121,-49.2461 -0.6084,-22.0318 -0.229,-34.1609 1.606,-51.3565 2.8343,-26.557 9.2262,-65.8071 13.3419,-81.9264 3.1396,-12.2969 10.9449,-35.3654 12.746,-37.6711 0.6045,-0.7739 3.9345,-6.789 7.4,-13.3668 21.0657,-39.9856 61.9741,-86.2742 110.7319,-125.2955 12.7282,-10.1863 24.7583,-19.5467 26.7336,-20.8009 1.9753,-1.2541 3.9082,-2.6382 4.2951,-3.0756 1.3078,-1.4788 26.6052,-18.2646 27.526,-18.2646 0.5022,0 3.2203,-1.7412 6.0402,-3.8693 2.8199,-2.1281 6.71,-4.7837 8.6447,-5.9012 1.9347,-1.1176 10.1658,-6.1221 18.2914,-11.1212 39.4014,-24.2407 137.3185,-72.5802 177.1005,-87.4304 5.9059,-2.2047 15.4867,-5.9983 21.2907,-8.4302 5.8039,-2.4321 14.3517,-5.7083 18.9948,-7.2805 4.6432,-1.5723 11.1465,-4.0887 14.4518,-5.592 6.7928,-3.0896 43.1083,-16.0666 51.6675,-18.4629 3.0893,-0.8649 11.637,-3.6922 18.9948,-6.2828 7.3578,-2.5908 19.7095,-6.5163 27.4482,-8.7236 7.7386,-2.2073 17.8693,-5.3287 22.5124,-6.9365 4.6432,-1.6078 16.0402,-4.8809 25.3266,-7.2732 9.2864,-2.3925 21.7766,-5.8848 27.7559,-7.7606 5.9793,-1.876 17.0597,-4.6731 24.623,-6.216 7.5634,-1.5428 18.8168,-4.393 25.0077,-6.3338 6.1909,-1.9408 19.4874,-5.1535 29.5476,-7.1395 10.06032,-1.9859 20.70882,-4.329 23.66332,-5.207 6.9391,-2.062 11.0971,-7.1944 9.8511,-12.1593 -0.9961,-3.9681 -9.6146,-18.2017 -19.2847,-31.8488 -3.29,-4.6432 -10.95442,-15.7235 -17.03192,-24.623 -6.0775,-8.8995 -13.9483,-20.0128 -17.4907,-24.6962 -3.5423,-4.6834 -8.9733,-12.1528 -12.0687,-16.5986 -3.0955,-4.4456 -8.5182,-12.0107 -12.0503,-16.811 -3.5322,-4.8005 -7.6261,-10.7859 -9.0973,-13.301 -1.4713,-2.515 -3.1175,-4.5728 -3.6581,-4.5728 -0.5407,0 -2.8906,-3.0075 -5.222,-6.6834 -3.8245,-6.0298 -8.2292,-12.4718 -29.1022,-42.5626 -3.4893,-5.0302 -9.1851,-12.9447 -12.6574,-17.5879 -3.4722,-4.6432 -11.9748,-16.8166 -18.8945,-27.0517 -6.9197,-10.2353 -17.2392,-24.7981 -22.9324,-32.3617 -5.6931,-7.5638 -12.2779,-16.6014 -14.6327,-20.0838 -15.4442,-22.8396 -27.0448,-39.5958 -30.2802,-43.7372 -8.8939,-11.3849 -20.8691,-27.8132 -20.8691,-28.6294 0,-0.4875 -7.7562,-11.0971 -17.2361,-23.5768 -18.3183,-24.1148 -24.2653,-32.2076 -30.3074,-41.242 -2.0702,-3.0954 -8.5237,-11.8394 -14.3412,-19.4309 -17.7451,-23.1566 -46.4024,-63.0926 -55.6023,-77.4864 -3.0954,-4.843 -7.3693,-11.0373 -9.4974,-13.7651 -2.1281,-2.7278 -3.8693,-5.4679 -3.8693,-6.0889 0,-0.6211 -2.1107,-3.7272 -4.6904,-6.9024 -2.5796,-3.1752 -6.9417,-9.2554 -9.6936,-13.5117 -2.7518,-4.2562 -6.0325,-9.0049 -7.2903,-10.5527 -5.8923,-7.2504 -26.9686,-35.9282 -31.0222,-42.2109 -2.4967,-3.8693 -8.4696,-12.1004 -13.2735,-18.2914 -4.8038,-6.1909 -11.535,-15.3717 -14.9583,-20.4019 -3.4232,-5.0301 -9.0983,-13.2612 -12.6112,-18.2914 -3.5129,-5.0301 -9.4268,-13.5778 -13.1418,-18.9949 -7.3178,-10.6705 -16.257,-23.6039 -26.2654,-38.0017 -3.4921,-5.0235 -9.0975,-13.091 -12.4562,-17.9277 -3.3589,-4.8367 -9.188,-13.2261 -12.9538,-18.6431 -3.7656,-5.4171 -7.2502,-10.1658 -7.7433,-10.5528 -0.493,-0.3869 -6.4249,-8.9266 -13.1818,-18.977 -6.7567,-10.0504 -12.7792,-18.5981 -13.3832,-18.9949 -1.029,-0.6758 -4.8073,-6.0238 -21.3855,-30.269 -3.7041,-5.4171 -9.1766,-13.3316 -12.1611,-17.5879 -11.1303,-15.8728 -14.3905,-20.8393 -14.3905,-21.9223 0,-0.6118 -1.2038,-2.4194 -2.6753,-4.017 -2.4226,-2.6304 -45.2626,-66.5024 -51.1296,-76.2313 -4.2721,-7.0841 -14.4168,-21.1566 -19.0805,-26.4684 -2.4757,-2.8197 -4.5012,-5.771 -4.5012,-6.5586 0,-0.7875 -3.4824,-6.7199 -7.7387,-13.1829 -4.2562,-6.4631 -7.7386,-12.1086 -7.7386,-12.5455 0,-0.437 -2.8493,-5.1991 -6.3317,-10.5823 -3.4824,-5.3833 -6.3316,-10.3908 -6.3316,-11.1279 0,-0.737 -0.9562,-2.1336 -2.125,-3.1036 -1.1687,-0.97 -5.0662,-6.2712 -8.6612,-11.7804 -3.5948,-5.5091 -7.229,-10.6498 -8.0759,-11.4237 -0.8469,-0.7738 -3.063,-4.2562 -4.9246,-7.7386 -1.8615,-3.4824 -5.4227,-9.1809 -7.9137,-12.6633 -2.491,-3.4824 -5.9662,-9.1809 -7.7228,-12.6632 -1.7565,-3.4824 -4.5838,-8.2312 -6.2828,-10.5528 -1.699,-2.3216 -4.4829,-6.9817 -6.1867,-10.3557 -1.7037,-3.3742 -4.8653,-8.4395 -7.0257,-11.2562 -2.1603,-2.8169 -5.0992,-7.9709 -6.5307,-11.4533 -1.4315,-3.4824 -4.0133,-7.9145 -5.7372,-9.8492 -1.7239,-1.9346 -5.0867,-7.5789 -7.4727,-12.5428 -2.3861,-4.9639 -5.2309,-10.0292 -6.3219,-11.2562 -1.0912,-1.2271 -3.8522,-6.03 -6.1358,-10.6732 -2.2836,-4.6432 -6.4601,-12.2039 -9.2812,-16.8016 -2.8211,-4.5976 -5.1293,-9.0931 -5.1293,-9.9898 0,-0.8968 -1.9554,-4.3297 -4.3452,-7.6288 -2.3899,-3.299 -6.1033,-10.3186 -8.2521,-15.5989 -2.1488,-5.2804 -5.042,-10.7356 -6.4291,-12.1228 -1.3872,-1.3872 -3.7722,-5.3847 -5.2999,-8.8834 -1.5276,-3.4987 -4.9145,-9.301 -7.5263,-12.8942 -2.6118,-3.593 -5.7132,-9.2914 -6.8917,-12.6632 -1.1786,-3.3717 -4.2665,-9.6129 -6.8619,-13.8691 -2.5954,-4.2563 -5.1467,-9.7374 -5.6694,-12.1804 -0.5228,-2.4429 -3.187,-8.1413 -5.9205,-12.6633 -2.7335,-4.5217 -6.4833,-12.2227 -8.3328,-17.1131 -1.8497,-4.8903 -4.6303,-10.6713 -6.1794,-12.8467 -1.549,-2.1755 -5.019,-9.1781 -7.7112,-15.5614 -2.6921,-6.3832 -5.7845,-12.6323 -6.872,-13.8866 -1.0873,-1.2546 -3.1087,-7.0296 -4.4915,-12.8336 -1.383,-5.804 -4.6063,-14.9848 -7.1629,-20.4019 -2.556697,-5.4171 -5.632197,-14.0943 -6.834397,-19.2829 -1.2023,-5.1887 -4.025,-13.4198 -6.2728,-18.2914 -2.2477,-4.8717 -5.0681,-12.6566 -6.2676,-17.2998 -1.1995,-4.6432 -3.7067,-11.608 -5.5714,-15.4774 -1.8649,-3.8693 -4.5098,-10.5175 -5.8776,-14.7738 -5.7673,-17.9464 -6.8178,-20.8166 -10.6868,-29.1996 -2.2334,-4.8387 -4.0755,-9.5874 -4.0936,-10.5528 -0.018,-0.9652 -2.6009,-9.9861 -5.7393,-20.0463 -3.1385,-10.0603 -6.9523,-24.9396 -8.4752,-33.0652 -1.5229,-8.1256 -4.3506,-20.7889 -6.2838,-28.1406 -4.7796,-18.1753 -7.4173,-30.9527 -9.1373,-44.2619 -0.7959,-6.1583 -2.9165,-16.9221 -4.7124,-23.9195 -4.6214,-18.0071 -7.4658,-35.6972 -8.4934,-52.8232 -0.914,-15.2328 -3.7022002,-41.1099 -6.2917002,-58.3917 -5.3833,-35.9284 -8.8132,-169.6802 -5.8992,-230.0493 3.0725,-63.6573 4.583,-84.2167 7.9597,-108.3413 1.8955002,-13.5427 4.0835002,-31.5878 4.8620002,-40.1004 1.4899,-16.2889 2.5193,-22.1815 7.8653,-45.0249 1.8111,-7.7387 3.9715,-18.1859 4.8006,-23.216 0.8293,-5.0301 2.3762,-12.9447 3.4377,-17.5879 7.3628,-32.2094 9.5683,-42.036 11.5268,-51.3565 1.2196,-5.804 3.7062,-15.6181 5.5259,-21.809 1.8196,-6.1909 4.0288,-15.3538 4.9093,-20.362 0.8805,-5.0082 3.8577,-15.7719 6.616,-23.9195 2.7582,-8.1475 6.748,-20.8288 8.866,-28.1805 2.118,-7.3518 6.0981,-19.6984 8.8446,-27.4371 2.7465,-7.7386 7.276,-21.6682 10.0656,-30.9546 2.7896,-9.2864 7.2618,-22.5828 9.9381,-29.5476 2.6765,-6.9648 5.821197,-16.4623 6.988197,-21.1055 1.167,-4.6432 5.5907,-15.407 9.8303,-23.9195 4.2397,-8.5125 8.6139,-19.0423 9.7203,-23.3994 2.1733,-8.55844 7.741,-21.19964 13.1473,-29.85034 1.8597,-2.976 4.963,-10.2574 6.8963,-16.1809 1.9331,-5.9236 6.5758,-17.1017 10.317,-24.8404 3.7412,-7.7386 8.485,-18.1035 10.5418,-23.0329 2.0568,-4.9295 5.1862,-11.2612 6.9542,-14.0703 1.7681,-2.8093 8.7897,-15.5548 15.6037,-28.3236 6.814,-12.7688 14.266,-26.6984 16.5602,-30.9547 5.5815,-10.3554 20.6933,-35.7487 25.9576,-43.6179 2.3295,-3.4824 6.2835,-10.051 8.7867,-14.5968 2.5031,-4.5458 6.3251,-11.2737 8.4931,-14.9508 2.1681,-3.6772 5.996,-10.405 8.5061,-14.9508 2.5101,-4.5459 6.2804,-10.4813 8.3782,-13.1898 2.0977,-2.7086 4.5347,-6.2999 5.4155,-7.9807 0.8806,-1.6808 2.4182,-3.8969 3.4168,-4.9246 0.9986,-1.0277 3.6296,-5.0343 5.8468,-8.9037 8.1268,-14.1828 42.903,-63.4045 51.693,-73.1655 1.3936,-1.5477 4.3898,-5.3467 6.658,-8.4422 9.2548,-12.6302 21.4115,-28.1103 25.8356,-32.8985 2.5874,-2.8002 10.2844,-12.2698 17.1046,-21.0436 6.8201,-8.7738 21.8001,-25.5839 33.2888,-37.3558 11.4886,-11.7719 22.8141,-24.0616 25.1676,-27.3106 7.4107,-10.2302 10.1171,-13.2338 27.5145,-30.5366 9.3372,-9.2864 19.7979,-20.2853 23.246,-24.442 3.448,-4.1566 12.4508,-12.2589 20.006,-18.0047 15.3888,-11.7039 18.1603,-14.2707 29.1777,-27.0243 4.2562,-4.927 10.5741,-10.9114 14.0397,-13.2984 8.8616,-6.10382 11.9028,-8.70373 23.9142,-20.44511 5.8237,-5.6927 16.6036,-14.83136 23.9554,-20.30808 12.0924,-9.00837 35.7263,-28.22108 40.6495,-33.04522 1.0759,-1.05428 3.6086,-2.95054 5.6281,-4.21391 2.0195,-1.26337 11.0843,-7.86797 20.1439,-14.67687 9.0596,-6.80889 17.0796,-12.37989 17.8224,-12.37989 0.7426,0 1.5614,-0.48753 1.8194,-1.08341 0.5499,-1.27041 14.0646,-10.23122 20.1674,-13.37213 2.3216,-1.19471 11.5025,-7.59148 20.4019,-14.21508 8.8995,-6.62345 20.2964,-14.03118 25.3266,-16.46154 17.5538,-8.48171 19.9478,-9.83922 27.7774,-15.75057 4.3352,-3.27318 12.758,-8.48383 18.7172,-11.57929 5.9591,-3.09547 17.7219,-9.76746 26.1396,-14.82658 8.4177,-5.05925 20.0537,-11.34727 25.8577,-13.97363 5.804,-2.62622 18.1507,-9.27584 27.4371,-14.77691 9.2864,-5.5012 20.3667,-11.47939 24.623,-13.28517 4.2563,-1.80564 14.5228,-6.62908 22.8146,-10.71875 8.2917,-4.08982 18.4223,-8.52323 22.5124,-9.85216 4.0901,-1.32894 14.718,-5.92191 23.6174,-10.20674 17.7478,-8.54489 19.8061,-9.41767 35.00432,-14.84092 5.7096,-2.03738 11.0914,-4.23488 11.9597,-4.88324 2.9497,-2.20299 22.6252,-9.92026 39.5684,-15.519962 32.6457,-10.78938 47.9975,-15.89859 64.7233,-21.5405 9.2864,-3.13233 22.2663,-7.15742 28.8441,-8.94462 6.5779,-1.78721 17.0251,-4.64855 23.216,-6.35865 6.1909,-1.71011 12.5226,-3.42162 14.0703,-3.80363 1.5477,-0.38186 8.8291,-2.43993 16.1809,-4.57355 20.859,-6.0536 23.6192,-6.73896 40.1003,-9.95726 8.5125,-1.66227 20.5426,-4.51178 26.7336,-6.33206 10.4545,-3.07394 43.37,-9.94994 73.1655,-15.28428 6.9648,-1.2469 17.7286,-3.19789 23.9195,-4.33562 33.0857,-6.08005 93.1019,-11.8087701 171.6576,-16.3851401 35.1969,-2.05045999 121.2027,-2.01964999 154.7733,0.0549 112.2723,6.93989 141.479,10.3112701 214.572,24.7683601 5.804,1.14786 17.2009,3.35647 25.3265,4.90786 8.1256,1.55139 20.4723,4.33055 27.4371,6.17601 6.9648,1.84532 17.412,4.395 23.216,5.66583 5.804,1.27069 14.0351,3.20789 18.2914,4.30481 4.2562,1.09706 12.4874,3.02047 18.2913,4.27427 5.804,1.25395 15.3015,3.92266 21.1055,5.93077 5.804,2.00797 16.8843,5.06024 24.623,6.78273 7.7387,1.72248 21.3517,5.64627 30.2511,8.71964 8.8995,3.07324 19.9799,6.72631 24.6231,8.11786 16.6081,4.97737 33.8282,10.75266 37.2862,12.50526 1.9347,0.98041 7.6332,2.88384 12.6633,4.22967 5.0301,1.34596 15.4773,5.016622 23.216,8.157252 7.7387,3.14063 21.0351,8.08817 29.5476,10.99453 8.5126,2.90636 19.5929,7.52564 24.623,10.26484 5.0302,2.73921 12.9447,6.32911 17.5879,7.97758 4.6432,1.64834 9.5643,3.61086 10.9357,4.36123 1.3715,0.75023 6.1202,2.68644 10.5527,4.30256 4.4326,1.61611 13.927,5.71746 21.0985,9.11417 7.1716,3.39671 13.8198,6.19811 14.7738,6.2254 1.6745,0.0478 6.3309,2.40026 31.9857,16.15903 27.9339,14.98121 42.2165,22.48532 53.4671,28.09219 6.5779,3.2781 16.9191,8.89764 22.9805,12.48796 6.0614,3.59017 11.2532,6.52763 11.5375,6.52763 0.2842,0 3.2394,1.81732 6.5671,4.03845 3.3277,2.22114 10.4825,6.41339 15.8996,9.31609 5.4171,2.90284 15.8643,9.09026 23.216,13.7502 7.3517,4.6598 14.6331,9.17763 16.1808,10.03958 5.2398,2.91803 23.9149,15.27091 24.6231,16.28721 0.3869,0.55521 9.2512,6.80285 19.6984,13.88372 18.8408,12.76978 28.675,20.2359 62.3768,47.35766 9.6161,7.73867 21.2012,16.91573 25.7443,20.39363 4.5432,3.47776 13.6423,11.43479 20.2202,17.68214 6.5778,6.24749 14.4924,13.31725 17.5878,15.71047 3.0955,2.39336 11.9598,10.78278 19.6984,18.64328 7.7387,7.8604 18.1859,17.5248 23.216,21.4765 11.8996,9.3481 66.678,64.2305 74.0936,74.234 3.1552,4.2563 9.7493,11.5377 14.6538,16.1809 4.9045,4.6432 12.1109,11.9707 16.0143,16.2834 3.9035,4.3127 12.1526,13.431 18.3316,20.263 6.179,6.832 13.4604,15.2465 16.1808,18.6986 2.7205,3.4523 9.7076,12.0625 15.5268,19.1338 5.8193,7.0714 12.1419,15.0731 14.0504,17.7816 1.9087,2.7085 4.5328,6.1909 5.8314,7.7387 2.2994,2.7401 15.1564,18.4996 23.8802,29.2707 2.3837,2.9432 7.6296,10.6004 11.6573,17.016 4.0279,6.4157 10.764,16.3542 14.969,22.0859 11.0766,15.0977 13.2867,18.4843 29.0032,44.4393 13.5364,22.3549 15.2818,25.3371 19.6166,33.5191 2.05,3.8694 7.9045,13.3668 13.0099,21.1055 5.1056,7.7386 13.6354,22.618 18.9552,33.0652 11.4728,22.5307 29.5301,56.1763 33.9339,63.2281 3.6307,5.8137 11.1807,21.6964 12.75,26.8218 0.5923,1.9346 3.4448,8.2663 6.3388,14.0703 2.8941,5.804 6.9503,15.6035 9.014,21.7767 2.0637,6.1732 5.2388,13.7712 7.0558,16.8844 7.8197,13.3978 9.8335,17.5248 13.7467,28.1728 2.2752,6.1909 4.6387,12.83914 5.2522,14.77384 0.6134,1.9346 3.4385,8.4775 6.2778,14.5398 2.8394,6.0622 8.0221,19.3586 11.5171,29.5476 13.6786,39.8766 32.961,98.4542 32.961,100.1315 0,0.972 1.9034,7.7015 4.2298,14.9546 4.1212,12.8484 25.9194,98.9852 32.8914,129.971 1.9153,8.5125 4.7317,19.9095 6.2586,25.3265 1.5271,5.4171 3.7959,17.4472 5.0421,26.7336 1.2462,9.2864 3.201,22.5828 4.3442,29.5476 4.3828,26.703 6.2274,41.721 8.3817,68.2409 1.2258,15.0904 3.1654,36.3014 4.3103,47.1355 5.0055,47.3699 5.5049,58.9412 5.4342,125.9292 -0.075,71.4046 -0.8275,85.7152 -7.0249,133.6678 -1.9504,15.0904 -4.1178,34.4019 -4.8166,42.9144 -1.9567,23.8352 -5.1689,49.219 -8.1906,64.7234 -1.5084,7.7386 -3.1723,17.8692 -3.6979,22.5124 -1.2576,11.1108 -5.7532,34.6011 -8.4824,44.3215 -1.195,4.2562 -4.049,16.6029 -6.3422,27.437 -2.2931,10.8342 -5.1927,23.1809 -6.4435,27.4371 -1.2508,4.2563 -3.8316,14.0703 -5.735,21.809 -1.9036,7.7386 -5.2888,19.4522 -7.5227,26.03 -2.2341,6.5779 -5.7252,17.9748 -7.7582,25.3266 -4.7528,17.1871 -16.1282,51.1729 -21.6635,64.7233 -2.3708,5.804 -4.3128,11.4105 -4.3155,12.4588 0,1.0484 -3.1025,9.2795 -6.8885,18.2914 -3.7862,9.0119 -7.8407,19.5511 -9.0102,23.4205 -1.1695,3.8693 -4.1296,11.6915 -6.5782,17.3825 -2.4485,5.6912 -5.8887,14.5555 -7.6449,19.6985 -1.7563,5.1431 -5.1959,12.4824 -7.6436,16.3098 -2.4476,3.8274 -4.4503,8.0239 -4.4503,9.3257 0,4.9869 -10.3695,26.4292 -19.9582,41.27 -2.9526,4.5697 -5.3683,9.0651 -5.3683,9.9896 0,0.9244 -4.5385,10.4821 -10.0856,21.239 -5.5472,10.757 -16.063,31.2716 -23.3688,45.5882 -7.3058,14.3165 -14.0715,26.9798 -15.0352,28.1406 -0.9635,1.1608 -4.1046,6.8592 -6.9801,12.6632 -7.1098,14.3505 -16.3665,31.0685 -19.9427,36.0174 -1.6227,2.2457 -4.5508,7.5654 -6.5068,11.8216 -1.9559,4.2563 -4.9004,9.135 -6.5433,10.8416 -1.6427,1.7066 -4.3461,6.7719 -6.0076,11.2562 -1.6614,4.4844 -4.741,10.3694 -6.8433,13.078 -2.1024,2.7085 -5.2079,8.0825 -6.9011,11.9421 -1.6931,3.8598 -4.2439,8.2919 -5.6684,9.8492 -1.4246,1.5575 -4.2956,6.2389 -6.3803,10.4033 -2.0845,4.1646 -5.0598,8.9133 -6.6116,10.5528 -1.5518,1.6396 -4.4191,6.1468 -6.3716,10.0162 -1.9527,3.8693 -5.1026,9.1035 -7,11.6315 -1.8972,2.5278 -4.7521,7.5931 -6.3438,11.2562 -1.592,3.6629 -4.311,8.5594 -6.0425,10.881 -1.7317,2.3216 -4.9062,7.7035 -7.0547,11.9597 -2.1487,4.2563 -5.6025,10.2714 -7.6755,13.3668 -2.073,3.0955 -5.5168,9.2688 -7.6529,13.7186 -2.1361,4.4497 -4.4245,8.0904 -5.0852,8.0904 -0.6608,0 -2.9074,3.6407 -4.9923,8.0904 -2.085,4.4497 -5.9928,11.5728 -8.6841,15.8291 -7.3086,11.5589 -14.3843,23.6824 -18.8871,32.3617 -2.2082,4.2562 -6.0733,10.674 -8.5893,14.2616 -4.395,6.2672 -8.1172,12.4505 -17.2377,28.6364 -2.3216,4.1201 -6.5955,10.9818 -9.4975,15.2483 -2.902,4.2667 -5.2763,8.2749 -5.2763,8.9073 0,0.6324 -2.7503,5.2739 -6.1119,10.3143 -13.3984,20.0904 -19.2146,29.3619 -19.2146,30.6292 0,0.7309 -1.861,3.898 -4.1356,7.0378 -2.2745,3.1399 -6.1885,9.4082 -8.6978,13.9297 -2.5092,4.5214 -6.1884,10.4368 -8.176,13.1453 -1.9876,2.7086 -4.8568,7.4573 -6.3761,10.5528 -1.5194,3.0954 -4.3919,7.8442 -6.3833,10.5527 -1.9913,2.7085 -4.8638,7.4554 -6.3832,10.5485 -1.5193,3.0932 -5.1368,8.8492 -8.0388,12.7912 -2.902,3.9419 -5.2764,7.7758 -5.2764,8.5195 0,0.7438 -3.1575,6.0681 -7.0167,11.8319 -3.8592,5.7637 -7.025,11.0208 -7.0351,11.6825 -0.014,0.6616 -1.9398,4.0498 -4.2878,7.5291 -2.3482,3.4793 -5.7956,9.3376 -7.6609,13.0185 -1.8651,3.6808 -4.9356,8.5276 -6.8229,10.7708 -1.8874,2.2431 -5.1807,7.2403 -7.3184,11.105 -2.1377,3.8647 -5.6938,9.3339 -7.9025,12.1538 -2.2087,2.8199 -4.0158,5.5924 -4.0158,6.1609 0,0.5686 -2.4672,4.6484 -5.4827,9.0662 -3.0156,4.4177 -6.7587,10.5096 -8.318,13.5375 -3.1789,6.1726 -13.4429,22.283 -19.6431,30.8317 -2.2451,3.0954 -5.7246,8.5781 -7.7323,12.1837 -2.0077,3.6055 -5.8184,9.9372 -8.4682,14.0703 -2.6498,4.133 -7.8064,12.2634 -11.459,18.0674 -9.1221,14.4945 -22.2523,35.3949 -24.339,38.7418 -1.3955,2.2386 -19.3656,32.1626 -25.0095,41.6462 -0.7739,1.3003 -5.5932,9.2298 -10.7097,17.621 -5.1164,8.3913 -10.6681,17.7895 -12.3369,20.885 -1.6688,3.0955 -6.5256,11.01 -10.7927,17.5879 -4.2671,6.5778 -10.4213,16.3919 -13.6761,21.8089 -3.2547,5.4171 -6.692,11.1156 -7.6383,12.6633 -0.9464,1.5477 -2.1791,3.7638 -2.7394,4.9246 -1.8133,3.7568 -9.2412,15.8519 -18.5778,30.2511 -9.1553,14.1194 -28.3528,45.4689 -28.3528,46.2997 0,0.2442 -4.3123,7.022 -9.583,15.0619 -5.2706,8.0399 -15.109,23.7989 -21.8631,35.02 -6.7542,11.221 -15.3866,25.1506 -19.1832,30.9546 -3.7966,5.804 -9.584,14.9849 -12.8609,20.4019 -3.2769,5.4171 -10.2768,16.4274 -15.5553,24.4673 -5.2786,8.0399 -9.5974,14.9016 -9.5974,15.2483 0,0.3465 -4.6506,7.698 -10.3347,16.3366 -5.6841,8.6384 -13.6184,21.0882 -17.6318,27.6661 -4.0134,6.5779 -11.8677,19.0883 -17.4541,27.8011 -5.5864,8.7127 -12.6897,20.0485 -15.7851,25.1906 -3.0955,5.1421 -7.6435,12.4184 -10.1065,16.1696 -6.2199,9.4725 -6.7422,11.7786 -3.4197,15.1011 3.5965,3.5965 26.7598,10.7363 48.5454,14.9636 9.3725,1.8186 23.2437,5.2319 30.825,7.5848 7.5813,2.3532 19.1648,5.2867 25.7411,6.519 6.5764,1.2322 15.8861,3.5386 20.6882,5.1253 4.802,1.5866 16.0124,4.7312 24.9118,6.9879 61.151,15.5067 174.1999,55.7581 243.4162,86.6688 4.2562,1.9008 12.1708,5.4375 17.5878,7.8591 23.7145,10.6017 87.8939,43.4577 109.7483,56.1845 16.5573,9.6421 44.8295,27.7461 65.3947,41.8754 38.9248,26.7429 87.7352,70.1445 109.1292,97.0363 4.6145,5.8003 9.8572,12.132 11.6506,14.0703 4.9851,5.3882 20.5194,29.0113 26.8432,40.8206 6.1513,11.4873 15.6246,30.6849 15.6246,31.6632 0,0.3363 1.5714,3.9528 3.492,8.0369 6.0211,12.8034 16.1765,51.1486 18.549,70.0381 4.936,39.2999 3.8831,74.7726 -3.3199,111.8588 -2.1599,11.1202 -13.571,50.9453 -15.8718,55.3924 -0.6533,1.2627 -5.3578,11.047 -10.4547,21.743 -5.0968,10.6959 -13.1999,25.8918 -18.0069,33.7687 -7.8904,12.9296 -30.3832,44.1405 -36.1222,50.123 -1.2569,1.3104 -8.8575,9.7595 -16.8904,18.7758 -8.0327,9.0164 -18.7965,20.1216 -23.9195,24.6781 -5.1229,4.5565 -12.2875,11.0654 -15.9211,14.4642 -10.7539,10.0588 -14.1246,13.0159 -21.5339,18.8918 -3.8693,3.0686 -7.3517,5.9319 -7.7387,6.3632 -0.3869,0.4312 -6.0854,4.8505 -12.6632,9.8207 -6.5779,4.9704 -12.9095,9.8203 -14.0703,10.7776 -1.1608,0.9575 -7.4925,5.5485 -14.0703,10.2022 -6.5779,4.6538 -12.5929,8.9535 -13.3668,9.5549 -1.5899,1.2356 -8.6663,5.9395 -12.1698,8.0896 -4.0119,2.462 -24.3464,16.0359 -25.82,17.2355 -1.8643,1.5178 -30.4708,18.6364 -39.3968,23.5756 -3.8694,2.1413 -12.4171,6.8761 -18.9949,10.522 -40.313,22.3441 -64.5686,34.3116 -103.4167,51.0252 -10.8341,4.661 -24.1837,10.5734 -29.6658,13.1384 -5.4821,2.5649 -14.0298,6.0494 -18.9949,7.7432 -4.9651,1.6939 -9.7116,3.6172 -10.5475,4.2742 -1.7352,1.3633 -29.0389,11.6246 -51.9471,19.5227 -8.5126,2.9348 -18.5289,6.6678 -22.2587,8.2956 -3.7297,1.6276 -10.8471,3.9024 -15.8164,5.0547 -4.9692,1.1525 -12.776,3.67 -17.3481,5.5944 -4.5723,1.9244 -15.1834,5.3698 -23.5806,7.6563 -8.397,2.2866 -19.6994,5.7151 -25.1164,7.6187 -5.4171,1.9037 -15.2311,4.788 -21.809,6.4093 -6.5779,1.6214 -16.7085,4.5066 -22.5125,6.4115 -5.804,1.905 -15.9346,4.7369 -22.5124,6.2934 -6.5779,1.5564 -17.6583,4.4044 -24.6231,6.3291 -6.9648,1.9245 -18.3617,4.7902 -25.3265,6.3681 -6.9648,1.5778 -18.9949,4.4203 -26.7335,6.3165 -7.7387,1.8963 -20.402,4.7711 -28.1406,6.3884 -7.7387,1.6172 -18.8191,4.1777 -24.6231,5.69 -5.804,1.5123 -14.9848,3.3817 -20.4019,4.1543 -5.4171,0.7726 -15.5477,2.697 -22.5125,4.2762 -6.9648,1.5793 -21.2109,4.415 -31.6581,6.3014 -10.4472,1.8865 -24.3768,4.4075 -30.9547,5.6019 -12.9605,2.3536 -46.1487,7.8867 -67.5374,11.2598 -7.3517,1.1594 -21.9145,3.1367 -32.3617,4.3939 -10.4472,1.2573 -28.7886,3.8493 -40.7588,5.7601 -11.9702,1.9108 -40.3863,5.0285 -63.1471,6.9285 -22.7608,1.8997 -41.8432,3.7384 -42.4053,4.0858 -2.3783,1.4698 -48.4401,5.0302 -82.3311,6.3636 -20.1205,0.7917 -41.9646,2.0009 -48.5425,2.6871 -6.5779,0.6863 -34.7536,1.3549 -62.6128,1.4859 -27.8592,0.1308 -64.2661,0.3493 -80.9042,0.4851 -16.6382,0.1351 -34.0501,0.091 -38.6933,-0.099 z m 230.8717,-126.2727 c 48.1165,-2.4124 72.0868,-4.1985 94.1521,-7.0156 8.5125,-1.0868 25.9245,-2.9793 38.6933,-4.2055 30.1619,-2.8965 55.7579,-6.029 68.9445,-8.4374 5.804,-1.0602 18.7838,-2.9538 28.8441,-4.2081 25.7424,-3.2097 45.2523,-6.3177 53.4671,-8.5178 3.8693,-1.0361 14.3165,-2.9008 23.216,-4.1437 21.7974,-3.0441 40.4329,-6.483 46.532,-8.5866 2.7635,-0.9533 11.6278,-2.8078 19.6984,-4.1212 16.8509,-2.7425 36.5258,-6.8326 47.739,-9.9244 4.2562,-1.1734 13.264,-3.0981 20.0172,-4.2768 6.7533,-1.1786 19.9817,-4.3181 29.3965,-6.9766 9.4149,-2.6584 20.3517,-5.2462 24.3042,-5.7508 3.9525,-0.5044 15.0656,-3.358 24.6961,-6.3412 9.6304,-2.983 21.1549,-6.0848 25.61,-6.8928 4.4552,-0.8077 11.7716,-2.76 16.2589,-4.3383 4.4873,-1.5782 13.5406,-4.171 20.1184,-5.7616 6.5779,-1.5906 16.3919,-4.4297 21.809,-6.3091 5.4171,-1.8794 14.2814,-4.7065 19.6984,-6.2827 5.4171,-1.5761 14.2814,-4.4076 19.6984,-6.2925 5.4171,-1.8847 13.9648,-4.7352 18.9949,-6.3343 5.0302,-1.5991 13.8945,-4.7127 19.6984,-6.9189 10.1371,-3.8535 23.3325,-8.7059 52.0601,-19.1441 7.3518,-2.6712 15.2663,-5.821 17.5879,-6.9995 2.3216,-1.1784 10.5527,-4.5743 18.2914,-7.5461 7.7387,-2.9719 15.9698,-6.4032 18.2914,-7.6252 2.3216,-1.222 4.7422,-2.2258 5.3792,-2.2305 2.7247,-0.021 103.0829,-49.578 110.253,-54.4437 2.5687,-1.7432 8.3106,-5.1689 12.7599,-7.6127 4.4493,-2.4439 9.0395,-5.2308 10.2003,-6.1932 1.1608,-0.9624 5.5929,-3.6619 9.8492,-5.9992 12.8539,-7.058 31.0485,-19.0651 52.2074,-34.4529 6.1186,-4.4497 11.4369,-8.0904 11.8185,-8.0904 0.8466,0 17.7166,-12.7619 19.6877,-14.8934 0.7764,-0.8396 4.572,-4.0054 8.4346,-7.0352 15.5426,-12.1911 46.2118,-40.5513 57.1813,-52.876 22.2513,-25.0005 43.8402,-56.7535 51.1625,-75.2502 2.0996,-5.3037 5.7258,-14.0337 8.0582,-19.3999 11.9101,-27.402 12.8181,-98.4047 1.6026,-125.318 -1.9349,-4.6432 -5.0664,-12.8744 -6.9589,-18.2914 -5.1137,-14.6383 -22.852,-42.4977 -40.7672,-64.0282 -12.3843,-14.8832 -39.2276,-40.1918 -56.8995,-53.6461 -7.3517,-5.5971 -13.6833,-10.5573 -14.0703,-11.0225 -2.5236,-3.0341 -36.7585,-25.9085 -59.0952,-39.4849 -20.2925,-12.3342 -22.8203,-13.8189 -35.8341,-21.0469 -9.8505,-5.4711 -66.383,-33.7856 -67.456,-33.7856 -0.4034,0 -6.2953,-2.7146 -13.0932,-6.0322 -6.7979,-3.3178 -15.5257,-7.2182 -19.3951,-8.6676 -3.8693,-1.4494 -10.8341,-4.4008 -15.4773,-6.5586 -11.8538,-5.5088 -31.6451,-13.4387 -45.7285,-18.3222 -6.5778,-2.2809 -14.7784,-5.4521 -18.2235,-7.047 -3.4451,-1.5948 -12.0101,-4.6686 -19.0333,-6.8305 -7.0234,-2.1619 -16.7098,-5.589 -21.5253,-7.616 -4.8157,-2.0268 -12.3839,-4.6301 -16.8184,-5.7851 -8.4346,-2.197 -19.7823,-6.1395 -22.188,-7.7087 -0.7739,-0.5047 -5.5226,-2.0449 -10.5527,-3.4224 -5.0302,-1.3774 -16.7437,-5.0088 -26.0301,-8.0697 -9.2864,-3.061 -22.9444,-7.0731 -30.3512,-8.9161 -7.4067,-1.8429 -17.5373,-4.8821 -22.5124,-6.7537 -4.9751,-1.8718 -14.4276,-4.491 -21.0054,-5.8206 -6.5779,-1.3296 -18.608,-4.5499 -26.7336,-7.156 -8.1256,-2.6061 -21.1054,-6.0077 -28.8441,-7.5593 -7.7387,-1.5515 -18.819,-4.4528 -24.623,-6.4475 -11.0748,-3.8061 -32.8395,-8.8563 -43.658,-10.1305 -13.095,-1.5421 -16.91,1.9428 -38.2262,34.9206 -5.1823,8.0171 -14.3631,21.9667 -20.4019,30.999 -6.0389,9.0323 -13.829,21.0378 -17.3114,26.6787 -3.4824,5.6411 -8.5477,13.2712 -11.2563,16.9561 -2.7085,3.6849 -8.407,12.224 -12.6632,18.9758 -15.5819,24.7177 -30.9358,47.2787 -32.7135,48.0687 -0.5804,0.2581 -1.0894,1.2078 -1.1312,2.1106 -0.042,0.9029 -6.2152,10.6343 -13.7186,21.6255 -7.5034,10.9911 -20.4632,30.0402 -28.7996,42.3312 -8.3364,12.2909 -16.4227,23.7056 -17.9695,25.3659 -1.5469,1.6604 -8.1427,11.1037 -14.6577,20.9853 -6.5148,9.8814 -14.4019,21.4487 -17.5268,25.705 -7.4855,10.1956 -17.0002,23.9845 -17.0002,24.6371 0,0.7896 -15.3658,22.1093 -18.2436,25.3124 -1.3906,1.5478 -8.4116,11.6784 -15.6023,22.5125 -7.1908,10.8341 -15.022,22.3168 -17.4029,25.5168 -5.1761,6.9575 -6.3799,8.6958 -13.1688,19.0192 -8.5699,13.0315 -19.714,28.842 -21.7989,30.9268 -1.0715,1.0716 -6.6808,8.9075 -12.4649,17.4134 -5.7842,8.5058 -12.9685,18.9475 -15.965,23.2038 -9.8525,13.9939 -17.3705,24.5456 -21.0526,29.5476 -19.4317,26.3978 -32.9392,45.0484 -35.1561,48.5425 -2.3385,3.6857 -28.3359,36.8114 -30.367,38.6933 -0.4176,0.3869 -2.9574,3.5528 -5.644,7.0352 -10.1351,13.1373 -35.8314,41.8891 -46.1898,51.682 -13.3689,12.6391 -34.5209,23.8092 -47.6928,25.186 -12.1388,1.2687 -30.7486,-5.1294 -46.044,-15.8303 -8.5716,-5.9966 -66.117,-65.7058 -83.8316,-86.9838 -1.8943,-2.2754 -5.683,-6.7076 -8.4191,-9.8492 -2.7363,-3.1416 -6.788,-8.2448 -9.0039,-11.3402 -2.2161,-3.0955 -4.7261,-6.2676 -5.5779,-7.0492 -2.6868,-2.4654 -15.4756,-17.912 -22.7046,-27.4231 -7.3532,-9.6746 -9.2561,-12.023 -18.2411,-22.5124 -9.3848,-10.9563 -11.2414,-13.2255 -18.9949,-23.216 -8.3749,-10.7915 -11.1743,-14.2103 -18.3641,-22.4285 -2.7486,-3.1416 -7.1643,-8.5613 -9.8129,-12.0437 -2.6484,-3.4824 -5.1586,-6.6483 -5.578,-7.0352 -0.7223,-0.6664 -2.8546,-3.2563 -13.1821,-16.0109 -2.4306,-3.0019 -7.2687,-8.7129 -10.7511,-12.6911 -3.4824,-3.9781 -9.3087,-11.0194 -12.9475,-15.6473 -19.133,-24.3343 -30.1287,-38.1468 -31.6256,-39.7277 -0.9195,-0.9713 -6.3045,-7.8348 -11.9664,-15.2524 -5.6619,-7.4176 -14.0934,-18.409 -18.7366,-24.4255 -4.6432,-6.0163 -13.1654,-17.1978 -18.9383,-24.8478 -5.7729,-7.65 -12.7377,-16.4797 -15.4773,-19.6213 -8.4452,-9.6845 -11.2399,-13.1721 -16.6253,-20.7468 -4.8838,-6.8693 -11.4825,-15.3175 -22.1942,-28.4153 -2.5316,-3.0954 -8.093,-10.3768 -12.3587,-16.1808 -9.9605,-13.5524 -19.4326,-25.9818 -28.7768,-37.7612 -4.09,-5.1559 -10.702,-14.123 -14.6935,-19.927 -3.9913,-5.804 -7.6393,-10.8693 -8.1065,-11.2563 -0.4672,-0.3869 -3.8371,-4.6251 -7.4886,-9.4182 -3.6514,-4.793 -7.4319,-9.5418 -8.4011,-10.5527 -0.9692,-1.011 -4.2039,-5.273 -7.1885,-9.4713 -2.9845,-4.1983 -5.981,-8.3138 -6.6588,-9.1457 -0.6777,-0.8318 -6.4042,-8.4772 -12.7254,-16.9897 -6.3213,-8.5126 -11.9201,-15.7939 -12.4418,-16.1809 -0.5219,-0.3869 -3.3621,-4.1859 -6.3115,-8.4421 -2.9496,-4.2563 -6.8958,-9.6382 -8.7695,-11.9598 -4.8002,-5.9479 -25.5529,-33.6938 -30.7609,-41.1266 -6.3778,-9.1027 -15.6849,-18.6022 -19.7332,-20.1414 -7.8291,-2.9765 -26.1651,-0.2416 -51.8966,7.7411 -8.5125,2.6407 -17.6934,5.1954 -20.4019,5.6771 -9.8341,1.7486 -23.4294,5.245 -33.0652,8.5032 -5.41712,1.8318 -16.81402,4.8897 -25.32652,6.7953 -8.5126,1.9056 -19.5929,4.9914 -24.623,6.8574 -5.0302,1.866 -14.211,4.519 -20.402,5.8955 -6.1909,1.3765 -17.2158,4.6859 -24.4999,7.3545 -7.2839,2.6684 -17.4145,5.812 -22.5124,6.9856 -5.0979,1.1736 -14.6507,4.2656 -21.2286,6.871 -6.5779,2.6054 -17.0251,6.1149 -23.216,7.799 -6.1909,1.6841 -12.5226,3.7423 -14.0703,4.5738 -1.5477,0.8316 -11.3618,4.5108 -21.8088,8.1761 -31.8653,11.1796 -68.1773,25.2133 -84.9155,32.8177 -2.437,1.1072 -8.863,3.8665 -14.2801,6.1317 -28.801,12.0438 -99.8051,47.634 -121.7081,61.005 -47.6331,29.0787 -68.2092,43.2572 -96.3815,66.4142 -28.9132,23.7662 -61.2757,60.1511 -74.5725,83.8417 -1.5478,2.7575 -4.464,7.8627 -6.4805,11.3449 -2.0166,3.4822 -4.7835,9.4971 -6.1489,13.3665 -1.3654,3.8693 -4.0116,10.4235 -5.8804,14.5648 -12.5974,27.9151 -12.9105,98.7924 -0.5694,128.9522 2.2165,5.417 5.4993,13.6482 7.2951,18.2914 1.7958,4.6432 4.707,10.804 6.4693,13.6905 1.7623,2.8867 3.2042,5.568 3.2042,5.9588 0,1.8629 10.2459,17.1733 21.6896,32.4108 21.2061,28.2362 59.4656,65.1368 97.2044,93.752 13.0451,9.8913 50.9035,36.3982 51.9858,36.3982 0.531,0 2.9811,1.5073 5.4445,3.3496 2.4634,1.8422 8.9112,5.873 14.3282,8.9574 5.4171,3.0845 15.7196,9.1686 22.8946,13.5203 15.6451,9.489 30.3684,17.5496 47.4569,25.9818 38.6386,19.0658 65.2639,31.6342 80.9042,38.1906 42.9137,17.9894 69.3889,28.3889 85.8287,33.7134 5.0301,1.6292 10.2713,3.602 11.6469,4.3841 1.3757,0.7821 14.9887,5.5067 30.2512,10.4991 15.2624,4.9925 35.3478,11.6349 44.6342,14.7608 9.2864,3.126 22.2662,6.9666 28.8441,8.5347 6.5779,1.5682 17.6582,4.6282 24.623,6.8001 6.9648,2.1717 18.9949,5.5534 26.73362,7.5146 7.7386,1.9613 18.819,4.8622 24.623,6.4463 5.804,1.5842 16.2512,4.1273 23.216,5.6515 6.9648,1.5241 18.6783,4.3276 26.03,6.2302 7.3518,1.9024 19.2243,4.5648 26.3832,5.9164 7.1591,1.3515 16.9201,3.6722 21.6912,5.1572 4.7711,1.485 16.6422,3.9688 26.3804,5.5196 9.7381,1.551 25.6202,4.7471 35.2935,7.1026 9.6734,2.3555 22.6532,4.8656 28.8441,5.578 12.8122,1.4743 28.053,4.146 46.432,8.1395 6.9648,1.5134 16.4623,3.1511 21.1055,3.6393 16.1157,1.6948 42.264,5.2727 52.0601,7.1234 13.8371,2.6142 39.8714,5.7871 75.9795,9.2599 17.0251,1.6374 31.3716,3.2334 31.8812,3.5466 0.5097,0.313 16.8913,1.834 36.4038,3.38 25.2412,1.9996 49.1286,2.8406 82.7916,2.9148 26.023,0.058 50.1639,0.5647 53.6463,1.1274 12.6477,2.0439 154.1258,1.6766 197.8065,-0.5134 z M 1704.465,4141.3814 c 9.13,-5.6712 34.7276,-34.1476 45.5451,-50.6674 1.8338,-2.8004 5.0851,-6.9913 7.2251,-9.3129 2.1401,-2.3216 5.2021,-7.2459 6.8047,-10.9429 1.6024,-3.6968 3.9471,-7.7552 5.2105,-9.0185 1.2632,-1.2633 3.915,-4.8867 5.8928,-8.0521 1.9775,-3.1654 5.5624,-8.0078 7.9661,-10.7611 5.4151,-6.2026 12.7874,-16.2785 18.7691,-25.6519 2.5021,-3.9211 6.0592,-8.7577 7.9044,-10.7481 1.8453,-1.9905 5.6291,-7.1014 8.4084,-11.3577 2.7793,-4.2563 8.9697,-13.4371 13.7564,-20.4019 4.7867,-6.9648 9.7195,-14.3647 10.9618,-16.444 1.2422,-2.0794 7.0073,-10.4933 12.8113,-18.6976 5.804,-8.2044 11.3216,-16.317 12.2614,-18.0283 0.9397,-1.7112 3.9681,-6.2771 6.7298,-10.1465 2.7616,-3.8693 7.1085,-10.2009 9.6598,-14.0703 2.5514,-3.8693 7.9427,-11.7838 11.9809,-17.5878 4.0381,-5.804 11.3118,-16.5678 16.1636,-23.9195 4.8519,-7.3518 10.5176,-15.8995 12.5904,-18.9949 12.8739,-19.2251 22.0303,-33.1784 25.3913,-38.6933 5.0718,-8.3221 14.8764,-23.3045 26.4168,-40.368 5.1344,-7.5915 10.5163,-16.0206 11.9598,-18.7312 1.4435,-2.7108 4.3647,-7.4595 6.4917,-10.5527 4.3606,-6.3414 17.0058,-25.6996 27.1111,-41.5035 13.2942,-20.7908 18.5634,-28.9906 24.8649,-38.6933 3.5181,-5.4171 10.0477,-15.5477 14.5104,-22.5125 4.4625,-6.9648 9.7701,-15.048 11.7944,-17.9628 2.0245,-2.9147 5.5803,-8.4444 7.9019,-12.2883 2.3216,-3.8439 5.8402,-9.3736 7.8189,-12.2883 1.9788,-2.9148 6.4923,-9.7317 10.0298,-15.1488 3.5377,-5.417 12.2693,-18.7059 19.4037,-29.5309 7.1342,-10.8248 13.9566,-21.5886 15.1607,-23.9195 2.2881,-4.4289 27.2497,-42.8406 33.3846,-51.3733 1.9473,-2.7085 4.9671,-7.5058 6.7106,-10.6606 3.0656,-5.5475 7.4171,-12.0214 20.7576,-30.8821 3.4824,-4.9233 9.1809,-13.4956 12.6633,-19.0496 3.4824,-5.5538 12.6632,-19.8358 20.4019,-31.7377 7.7386,-11.9018 16.1365,-24.9636 18.662,-29.0264 2.5253,-4.0627 7.7489,-12.3134 11.608,-18.3348 3.8589,-6.0213 7.0163,-11.3122 7.0163,-11.7572 0,-0.4452 1.8119,-3.1165 4.0267,-5.9364 2.2147,-2.8199 8.3093,-12.4085 13.5434,-21.3079 9.128,-15.52 12.9963,-21.6594 28.3694,-45.025 3.8187,-5.804 8.3202,-13.2235 10.0034,-16.4877 1.6832,-3.2643 4.8015,-8.6462 6.9293,-11.9598 2.128,-3.3137 5.0817,-8.2408 6.5638,-10.9493 1.4823,-2.7086 5.3673,-9.0402 8.6333,-14.0703 6.4628,-9.9533 47.5458,-77.6284 55.743,-91.824 2.788,-4.8283 8.4865,-14.2827 12.6632,-21.0098 4.1768,-6.7271 16.9944,-27.6215 28.4837,-46.432 11.4891,-18.8104 25.5521,-41.7987 31.2509,-51.0851 5.6989,-9.2864 11.1592,-18.4673 12.1338,-20.402 0.9747,-1.9346 5.0115,-8.5829 8.9707,-14.7738 3.9591,-6.1909 11.5305,-18.8542 16.8251,-28.1406 5.2947,-9.2864 12.3632,-21.4973 15.7078,-27.1352 3.3445,-5.638 6.0811,-10.5892 6.0811,-11.0027 0,-0.4136 1.8074,-3.3986 4.0166,-6.6335 5.5493,-8.1261 21.3099,-34.2436 21.3099,-35.3136 0,-0.4813 1.7282,-3.5535 3.8406,-6.827 6.0691,-9.4055 6.4932,-10.0994 10.6123,-17.3645 2.145,-3.7833 6.4619,-10.9188 9.5931,-15.8565 3.1312,-4.9377 6.7789,-10.9527 8.106,-13.3668 1.3271,-2.414 4.0804,-6.9838 6.1185,-10.1551 2.0381,-3.1713 4.8821,-7.92 6.3199,-10.5527 2.8023,-5.1306 3.9683,-6.9965 15.4761,-24.763 4.109,-6.3439 7.4709,-11.9315 7.4709,-12.4169 0,-0.4856 2.8492,-5.2872 6.3316,-10.6705 3.4824,-5.3832 6.3317,-10.1014 6.3317,-10.4846 0,-0.7065 11.9523,-20.1777 19.238,-31.3401 7.3958,-11.3311 13.1808,-20.625 14.5979,-23.4529 2.1694,-4.3284 10.0334,-17.7578 14.4702,-24.7104 4.2712,-6.6934 31.2416,-52.4282 38.2262,-64.8218 9.825,-17.4338 11.6081,-20.5029 15.1391,-26.055 2.0423,-3.2114 5.2234,-8.9099 7.0695,-12.6633 1.8458,-3.7534 5.2772,-9.9902 7.6251,-13.8595 3.9457,-6.5023 20.4704,-34.7267 35.5932,-60.7935 3.4824,-6.0025 7.1238,-12.7409 8.0921,-14.9742 0.9683,-2.2334 3.8621,-6.9936 6.4308,-10.5783 2.5687,-3.5848 6.4705,-10.1586 8.6706,-14.6084 2.2001,-4.4497 4.4291,-8.0904 4.9534,-8.0904 0.5243,0 3.0347,-4.2738 5.5787,-9.4974 2.5441,-5.2236 6.3459,-12.0301 8.4487,-15.1256 2.1026,-3.0955 4.9758,-8.6859 6.3847,-12.4231 1.4088,-3.7373 4.2253,-9.1192 6.2587,-11.9597 2.0334,-2.8407 5.176,-8.6388 6.9837,-12.8846 1.8076,-4.246 4.7962,-9.6991 6.6414,-12.1182 1.8451,-2.4191 4.3784,-7.4929 5.6295,-11.2751 1.2512,-3.7822 4.0206,-8.7762 6.1545,-11.0978 4.3113,-4.6905 8.416,-12.1362 8.416,-15.2661 0,-1.1216 2.5264,-5.4015 5.6141,-9.5109 3.0879,-4.1095 6.5455,-10.6752 7.6838,-14.5907 1.1383,-3.9155 3.2529,-8.3894 4.6993,-9.9419 4.6777,-5.0209 7.0385,-9.659 8.0197,-15.7553 0.5427,-3.3727 3.3545,-9.4936 6.4634,-14.0702 3.0266,-4.4554 5.5043,-9.1291 5.5062,-10.3862 0,-4.3937 4.3623,-14.5889 7.7389,-18.1134 1.8729,-1.9548 4.7119,-7.7842 6.3087,-12.9542 1.5968,-5.17 4.7051,-13.0769 6.9074,-17.5711 2.2023,-4.4941 5.0888,-11.6535 6.4146,-15.9097 1.3257,-4.2563 3.9446,-10.8101 5.8198,-14.5641 1.8751,-3.7539 4.7138,-11.9348 6.3083,-18.1796 1.5944,-6.2449 4.6688,-14.5704 6.8318,-18.5012 2.163,-3.9308 4.9456,-11.7014 6.1835,-17.2682 1.2377,-5.5668 4.1079,-13.4813 6.3779,-17.5879 2.2701,-4.1065 5.1962,-12.5318 6.5023,-18.7227 1.3063,-6.191 4.1626,-14.7543 6.3473,-19.0296 2.1848,-4.2752 5.0913,-13.4561 6.4591,-20.4019 1.3677,-6.9458 4.1797,-16.4276 6.2489,-21.0708 2.0691,-4.6432 4.8967,-14.4572 6.2833,-21.809 1.3868,-7.3517 4.275,-19.0652 6.4183,-26.03 4.8532,-15.7704 6.5042,-23.0216 7.6885,-33.7687 0.5116,-4.6432 2.7369,-15.5083 4.9451,-24.1448 2.2081,-8.6364 5.0383,-22.5659 6.2892,-30.9547 1.251,-8.3885 3.8545,-23.9933 5.7858,-34.677 1.9313,-10.6839 4.0836,-24.2969 4.7829,-30.2512 0.6993,-5.9544 2.2366,-18.9342 3.4162,-28.8444 4.0937,-34.3954 5.4025,-74.0903 4.5555,-138.162 -0.7048,-53.3202 -3.4717,-109.591 -5.769,-117.3244 -0.7029,-2.3667 -4.5347,-31.7181 -8.5624,-65.5894 -1.2883,-10.8341 -3.6222,-25.0803 -5.1864,-31.6582 -1.5642,-6.5778 -4.6415,-22.0904 -6.8385,-34.4722 -2.197,-12.3819 -5.3401,-27.2612 -6.9847,-33.0652 -1.6445,-5.804 -4.5284,-18.1507 -6.4086,-27.4371 -1.88,-9.2864 -5.8885,-24.7989 -8.9076,-34.4722 -3.0192,-9.6733 -5.9128,-20.1205 -6.4301,-23.216 -0.5175,-3.0955 -3.0821,-11.01 -5.6991,-17.5879 -2.617,-6.5778 -5.7253,-16.2302 -6.9072,-21.4499 -1.182,-5.2195 -3.19,-11.8677 -4.4621,-14.7738 -2.4744,-5.6521 -10.141,-26.6391 -18.8477,-51.5943 -2.9466,-8.4457 -6.6324,-17.6265 -8.1904,-20.4019 -1.558,-2.7752 -4.7677,-10.3508 -7.1325,-16.8347 -2.3648,-6.4839 -5.4539,-13.7653 -6.8649,-16.1808 -1.4109,-2.4156 -4.0822,-8.5076 -5.9364,-13.5378 -1.854,-5.0301 -5.0504,-12.0183 -7.1029,-15.5294 -2.0526,-3.5109 -5.0839,-9.9972 -6.7363,-14.4139 -1.6526,-4.4166 -4.4651,-10.4082 -6.2503,-13.3147 -1.7851,-2.9065 -4.3784,-8.1337 -5.763,-11.6161 -1.3843,-3.4824 -3.5462,-8.2312 -4.8041,-10.5528 -6.5309,-12.05364 -17.6511,-33.51574 -21.8707,-42.21084 -2.6289,-5.4171 -6.7662,-12.7904 -9.194,-16.3849 -2.4277,-3.5947 -4.4141,-6.9521 -4.4141,-7.4612 0,-0.5089 -3.5253,-6.334 -7.8342,-12.9447 -4.3088,-6.6106 -8.2237,-13.0672 -8.6998,-14.3479 -0.9387,-2.5246 -4.9083,-8.8156 -33.4315,-52.9815 -21.9731,-34.0237 -46.3684,-69.352 -51.8164,-75.0385 -2.06,-2.15 -3.7453,-4.3691 -3.7453,-4.9313 0,-2.1379 -40.6238,-54.4875 -62.5604,-80.6182 -18.6184,-22.1781 -17.3394,-20.7297 -39.599,-44.8384 -39.4141,-42.6877 -110.3319,-110.8352 -139.1462,-133.7107 -3.8694,-3.0718 -7.3518,-5.9105 -7.7387,-6.3081 -2.0479,-2.1044 -37.0502,-29.6866 -46.9198,-36.9734 -6.3095,-4.6584 -11.7885,-8.8769 -12.1754,-9.3747 -0.387,-0.4978 -5.9087,-4.5456 -12.2706,-8.9949 -6.3617,-4.4494 -11.8968,-8.6238 -12.3001,-9.2764 -0.6019,-0.9738 -18.6254,-13.5224 -32.4562,-22.597 -1.7692,-1.1608 -10.9041,-7.3342 -20.2997,-13.7186 -9.3956,-6.3844 -17.4125,-11.608 -17.8154,-11.608 -0.4029,0 -3.3792,-1.8152 -6.6141,-4.0338 -6.8922,-4.72689 -34.6629,-21.29269 -35.6948,-21.29269 -0.3889,0 -2.4339,-1.2296 -4.5444,-2.73245 -11.3769,-8.10097 -100.5589,-54.65775 -125.3403,-65.43293 -5.0302,-2.18708 -17.6934,-7.73599 -28.1406,-12.33078 -26.7904,-11.78275 -26.6777,-11.73505 -34.4723,-14.56881 -3.8693,-1.40675 -8.3014,-3.331 -9.8492,-4.2761 -1.5477,-0.9451 -6.9296,-2.97193 -11.9597,-4.5039 -5.0302,-1.53198 -15.1608,-5.14256 -22.5125,-8.02345 -20.0845,-7.87036 -70.6413,-24.30587 -96.3815,-31.33244 -8.5126,-2.32371 -21.4924,-5.87548 -28.8441,-7.89273 -7.3518,-2.01726 -16.5326,-4.28033 -20.402,-5.02887 -11.2157,-2.17006 -24.407,-5.13327 -37.156,-8.3465 -6.5061,-1.63989 -21.3854,-4.53612 -33.0651,-6.43617 -11.6797,-1.89992 -27.3554,-4.72284 -34.8349,-6.27325 -7.4796,-1.55026 -29.3237,-4.43763 -48.5425,-6.41633 -19.2189,-1.97885 -36.5263,-3.90268 -38.461,-4.2754 -12.9146,-2.48777 -61.1511,-5.33532 -109.7483,-6.47881 -31.3416,-0.73742 -63.6691,-1.68604 -71.839,-2.10829 -16.9868,-0.87771 -53.7323,1.89287 -95.0719,7.16839 -15.3795,1.96267 -35.8772,4.57524 -45.5506,5.80554 -9.6733,1.23045 -23.9195,3.71189 -31.6581,5.51429 -7.7387,1.80241 -17.2362,3.69515 -21.1055,4.20618 -10.4956,1.3862 -34.1152,6.06331 -42.9144,8.49775 -4.2563,1.17755 -15.3366,3.72089 -24.623,5.6519 -9.2864,1.93101 -19.417,4.3632 -22.5125,5.40496 -3.0954,1.04191 -9.7437,2.99937 -14.7738,4.35012 -36.3215,9.75311 -101.6065,31.1197 -116.3758,38.08773 -4.0322,1.9023 -11.1344,4.43299 -15.7827,5.6239 -4.6484,1.19091 -13.8658,4.66655 -20.4832,7.72389 -6.6176,3.05719 -12.6495,5.55861 -13.4045,5.55861 -0.755,0 -7.2336,2.75665 -14.3966,6.12578 -7.1631,3.36913 -14.42,6.56858 -16.1264,7.10986 -1.7064,0.54129 -8.2165,3.48325 -14.4668,6.53748 -6.2503,3.05438 -11.6223,5.55341 -11.9379,5.55341 -3.5784,0 -110.12422,55.31709 -117.52732,61.01851 -1.1608,0.89403 -4.3266,2.82335 -7.0351,4.2875 -2.7085,1.46416 -7.6473,4.46479 -10.975,6.66791 -3.3277,2.20313 -6.3565,4.00568 -6.7306,4.00568 -2.5942,0 -36.0857,21.62561 -70.6642,45.62801 -5.6538,3.9246 -13.2518,8.9474 -16.8842,11.1621 -3.6326,2.2145 -6.9213,4.4974 -7.3082,5.073 -0.387,0.5758 -13.6834,10.7827 -29.5476,22.6821 -15.8643,11.8993 -29.7939,22.4048 -30.9547,23.3452 -1.1608,0.9406 -8.1256,6.6604 -15.4773,12.7106 -7.3518,6.0501 -15.8995,12.8559 -18.9949,15.1239 -3.0955,2.268 -9.4271,7.7351 -14.0703,12.1491 -4.6432,4.414 -11.2914,10.3757 -14.7738,13.2482 -31.5501,26.0243 -116.5143,112.5149 -147.0346,149.6761 -1.5478,1.8845 -6.2226,7.2808 -10.3887,11.9917 -4.1661,4.711 -10.1594,12.0478 -13.3185,16.3041 -3.1591,4.2563 -7.1241,9.3216 -8.811,11.2563 -3.4334,3.9375 -13.6552,17.0848 -22.7356,29.2425 -36.5287,48.908 -44.3608,59.6854 -47.2563,65.0284 -1.4679,2.7086 -4.3783,7.1407 -6.4677,9.8492 -2.0893,2.7086 -6.1662,8.7236 -9.0598,13.3668 -2.8934,4.6432 -8.3563,13.1909 -12.1397,18.9949 -9.0255,13.8458 -24.5971,39.533 -25.5881,42.2109 -0.7589,2.051 -10.1262,18.0643 -19.7535,33.7687 -2.6092,4.2563 -6.2105,11.2211 -8.0029,15.4773 -1.7925,4.2563 -4.4805,9.4667 -5.9733,11.5788 -1.493,2.1121 -4.5492,7.8105 -6.7919,12.6632 -2.2426,4.8527 -5.3463,10.6949 -6.897,12.9824 -1.5508,2.28764 -4.2423,7.96354 -5.9812,12.61354 -1.739,4.6498 -5.2751,11.959 -7.8582,16.2427 -2.5831,4.2837 -5.063,9.3714 -5.511,11.3061 -0.448,1.9346 -3.5885,8.6804 -6.9789,14.9903 -3.3902,6.3101 -6.1642,12.3556 -6.1642,13.4345 0,1.0789 -2.5048,7.0719 -5.5663,13.3178 -3.0614,6.2459 -6.9472,15.3964 -8.6351,20.3343 -1.6877,4.9379 -4.5702,11.5757 -6.4055,14.7505 -1.8352,3.1749 -4.8505,10.7728 -6.7006,16.8844 -1.8499,6.1115 -4.7576,14.2776 -6.4612,18.147 -1.7036,3.8693 -4.565,11.7839 -6.3582,17.5878 -1.7934,5.804 -4.5394,13.1313 -6.102,16.2829 -1.5628,3.1515 -4.4395,12.0158 -6.3926,19.6984 -1.9531,7.6825 -4.8466,16.6384 -6.43,19.902 -1.5833,3.2635 -4.4127,12.2685 -6.2876,20.0111 -1.8747,7.7426 -4.971,18.6855 -6.8805,24.3174 -1.9096,5.6321 -4.5326,15.3054 -5.829,21.4963 -1.2963,6.1909 -3.5877,16.3216 -5.0918,22.5125 -7.8574,32.3403 -9.7169,40.7968 -12.3756,56.2812 -1.5946,9.2864 -4.4465,24.7989 -6.3377,34.4722 -3.2736,16.7441 -7.9492,52.0099 -13.5983,102.5632 -1.5032,13.4527 -3.2631,45.7052 -4.2229,77.3866 -3.3484,110.5337 3.6677,201.5509 23.2766,301.9578 5.4108,27.7053 8.8204,43.6555 12.4822,58.3918 1.8269,7.3517 4.3826,18.1155 5.6794,23.9195 6.004,26.8727 30.5798,101.4271 45.2212,137.1853 2.5349,6.191 5.5433,14.4221 6.6854,18.2914 1.1422,3.8694 4.5977,12.4171 7.679,18.9949 3.0814,6.5779 6.0773,13.5427 6.6579,15.4774 0.5805,1.9346 2.5125,6.3668 4.2934,9.8492 1.7809,3.4824 6.8625,13.9296 11.2925,23.2159 17.2297,36.1177 35.5204,71.4235 43.0067,83.0148 1.9993,3.0955 5.6639,9.721 8.1434,14.7236 2.4796,5.0025 5.202,9.9312 6.0498,10.9526 0.8477,1.0215 3.1869,4.8912 5.1984,8.5996 2.0113,3.7084 5.4463,9.5435 7.6333,12.9669 2.1868,3.4234 7.9993,13.1892 12.9168,21.7017 4.9173,8.5126 10.9582,18.7904 13.4242,22.8395 2.4659,4.0492 5.789,10.0642 7.3846,13.3668 1.5957,3.3026 4.5294,8.2207 6.5192,10.9292 1.9898,2.7086 4.8293,7.1407 6.31,9.8492 1.4806,2.7086 4.4014,7.1407 6.4906,9.8492 2.0891,2.7086 4.9218,7.1407 6.2946,9.8493 1.3729,2.7085 4.2037,7.1406 6.2907,9.8492 2.0869,2.7085 4.2225,6.1006 4.7456,7.5378 1.1192,3.0754 18.5475,29.9806 21.8601,33.7471 1.2536,1.4253 3.8623,5.3187 5.7969,8.652 5.2808,9.0981 16.8878,26.1392 21.3585,31.3581 2.173,2.5366 5.3115,7.2854 6.9746,10.5528 1.663,3.2674 5.0266,8.2857 7.4744,11.1517 2.448,2.8661 5.365,6.9773 6.4824,9.1359 1.1174,2.1588 3.5983,5.7126 5.513,7.8974 1.9148,2.1847 5.0806,6.7497 7.0351,10.1444 5.2062,9.0423 16.1465,24.757 20.5231,29.4793 2.0924,2.2578 4.647,6.1218 5.6769,8.5868 1.03,2.4648 3.3728,6.2992 5.2063,8.5208 1.8335,2.2216 4.5408,6.2552 6.0161,8.9638 1.4754,2.7085 4.7601,7.5794 7.2995,10.8241 2.5394,3.2448 9.4198,13.0588 15.2896,21.809 5.87,8.7501 11.1018,16.226 11.6262,16.6129 3.414,2.5189 18.8038,22.4998 28.2229,36.6423 6.1414,9.2211 12.3682,18.0558 13.8375,19.633 1.4693,1.5771 3.5469,4.598 4.6168,6.7131 1.0699,2.115 3.8621,6.1521 6.2049,8.9712 3.6693,4.4154 15.3065,21.6684 19.7736,29.3159 0.7942,1.3594 3.9714,5.8798 7.0605,10.0452 3.0891,4.1653 6.7335,9.7894 8.0985,12.4979 1.3649,2.7085 4.2028,6.962 6.3063,9.4522 2.1035,2.4901 6.9904,9.0123 10.8597,14.4936 3.8693,5.4815 13.6834,19.0073 21.809,30.0576 8.1256,11.0503 17.3064,23.6749 20.4019,28.0547 10.5855,14.9777 24.6912,33.8979 25.8433,34.6637 0.633,0.4209 3.5812,4.2476 6.5517,8.5038 2.9704,4.2563 6.2918,8.6313 7.3807,9.7222 1.0891,1.0909 3.5982,4.5733 5.5759,7.7387 1.9776,3.1654 5.5625,8.0712 7.9662,10.9019 2.4037,2.8308 6.1096,7.5795 8.2355,10.5527 2.1258,2.9734 7.0188,9.5215 10.8733,14.5517 3.8547,5.0301 9.6285,12.8598 12.8309,17.3994 3.2023,4.5397 6.7528,9.2884 7.8897,10.5528 1.137,1.2643 4.0709,5.574 6.52,9.5769 9.9419,16.2498 25.7869,37.8184 40.3321,54.9009 15.6597,18.3916 26.9757,33.439 36.2062,48.1454 2.1418,3.4124 5.5515,8.1611 7.5772,10.5528 2.0257,2.3916 5.2787,7.8527 7.2292,12.1357 1.9502,4.283 4.5099,8.5873 5.6881,9.565 1.1782,0.9778 4.5429,5.5464 7.4773,10.1525 2.9343,4.606 5.7833,8.3746 6.3308,8.3746 0.5475,0 4.0601,4.5061 7.8059,10.0135 15.1738,22.31 18.4183,26.7862 26.5777,36.6658 9.1269,11.0517 19.81432,25.8926 22.98872,31.9234 1.0737,2.0396 4.9089,7.8241 8.5225,12.8542 3.6138,5.0301 7.4842,10.4967 8.6008,12.1479 1.1166,1.6511 5.8292,7.5992 10.4724,13.2178 15.1874,18.3779 22.9849,28.5503 35.0223,45.6893 6.5222,9.2864 16.1896,22.7642 21.4833,29.9507 5.2936,7.1866 12.474,17.2298 15.9564,22.3183 3.4824,5.0886 11.9962,16.9373 18.9197,26.3305 6.9235,9.3932 14.838,20.3226 17.5879,24.2876 14.1825,20.449 17.6641,25.3103 19.3495,27.0169 1.0125,1.0253 3.8665,4.8243 6.342,8.4422 2.4756,3.6177 5.3784,7.4705 6.4508,8.5613 1.0725,1.0909 3.5807,4.5733 5.5737,7.7387 1.9932,3.1654 6.1738,9.2376 9.2903,13.4938 3.1166,4.2563 7.9764,10.9045 10.7996,14.7739 27.7103,37.9789 42.7755,58.4567 53.1148,72.1976 17.2772,22.9616 56.493,76.2105 58.7881,79.8247 2.6865,4.2311 24.4129,33.1253 25.8731,34.4091 0.4401,0.3869 2.5185,3.2361 4.6184,6.3316 5.9248,8.7332 17.1797,24.0353 34.917,47.4732 8.9371,11.8092 17.2535,23.0542 18.4809,24.9888 1.2275,1.9347 3.6406,5.1005 5.3624,7.0352 1.7218,1.9346 14.2998,18.2828 27.951,36.3291 32.5037,42.9683 32.2247,42.602 35.5578,46.6856 1.5791,1.9347 5.981,7.9497 9.7819,13.3668 3.801,5.4171 9.2869,12.8086 12.1908,16.4258 2.904,3.6171 8.4162,10.5819 12.2495,15.4773 3.8332,4.8954 7.3817,9.2173 7.8854,9.6043 0.5039,0.3869 3.3826,4.2534 6.3973,8.5923 5.4056,7.7799 10.51,14.4818 17.4858,22.9584 3.776,4.5881 14.23,18.1119 18.9731,24.5445 1.5604,2.116 7.5709,9.83 13.3569,17.1422 11.8058,14.92 20.8319,26.6667 28.1275,36.6057 6.8432,9.3227 13.7322,18.3785 16.5185,21.7141 1.2929,1.5478 4.5989,5.9799 7.3467,9.8493 5.9952,8.4423 18.2199,24.2798 21.1597,27.4133 1.1608,1.2372 4.5895,5.3894 7.6191,9.227 3.0298,3.8376 6.2348,7.6107 7.1224,8.3846 0.8875,0.7739 4.1834,5.206 7.324,9.8492 3.1408,4.6432 11.3326,14.3037 18.2043,21.4678 11.6949,12.1926 12.8538,13.0244 18.122,13.0096 3.0954,-0.014 7.5276,-1.1955 9.8492,-2.6377 z M 1554.6163,2791.0051 c -45.44,-1.8519 -102.0251,-7.0305 -121.0045,-11.0743 -5.0302,-1.0717 -16.1105,-2.9933 -24.623,-4.2702 -18.8101,-2.8215 -31.3167,-5.2665 -53.4672,-10.4526 -9.2864,-2.1743 -21.8798,-5.0568 -27.9854,-6.4056 -6.1055,-1.3487 -15.9195,-4.0325 -21.8089,-5.9639 -5.8894,-1.9315 -16.723,-4.996 -24.0747,-6.8101 -7.3517,-1.8142 -16.8492,-4.6066 -21.1055,-6.2057 -4.2562,-1.5989 -12.8039,-4.1778 -18.9949,-5.7311 -6.1909,-1.5532 -16.0049,-4.6529 -21.8089,-6.8881 -12.795,-4.9275 -23.5116,-8.5105 -25.4546,-8.5105 -0.7903,0 -5.1286,-1.8317 -9.6408,-4.0704 -4.5122,-2.2389 -13.8159,-6.1127 -20.6748,-8.6088 -6.859,-2.4959 -15.32,-6.0139 -18.8024,-7.8176 -3.4824,-1.8037 -10.4472,-4.967 -15.4773,-7.0294 -17.9762,-7.3704 -64.7609,-30.221 -68.9445,-33.6737 -1.1608,-0.9581 -8.1256,-4.7779 -15.4773,-8.4886 -7.3517,-3.7108 -16.919,-9.1215 -21.2606,-12.0238 -4.3417,-2.9024 -10.9899,-6.856 -14.7738,-8.7861 -3.784,-1.9298 -9.31652,-5.1743 -12.29452,-7.2097 -2.978,-2.0354 -9.6262,-6.0066 -14.7738,-8.8248 -5.1477,-2.8182 -14.9423,-8.9685 -21.7659,-13.6671 -6.8236,-4.6988 -13.4694,-9.1764 -14.7682,-9.9503 -1.299,-0.7738 -4.6714,-3.1482 -7.4944,-5.2763 -2.8229,-2.1282 -5.4846,-3.8694 -5.9149,-3.8694 -1.2569,0 -13.9694,-8.763 -17.7857,-12.26 -1.9227,-1.7619 -6.8985,-5.5808 -11.0574,-8.4866 -4.1591,-2.906 -11.7669,-8.8003 -16.9063,-13.0988 -9.7852,-8.1838 -20.3061,-16.4927 -28.4084,-22.4358 -2.6376,-1.9346 -8.9248,-7.3454 -13.9714,-12.0239 -5.0465,-4.6785 -11.0055,-10.0604 -13.2419,-11.9597 -2.2365,-1.8994 -6.9852,-6.3398 -10.5528,-9.8677 -3.5675,-3.5277 -11.5517,-10.7844 -17.7425,-16.1258 -14.5,-12.5104 -36.9028,-34.8853 -49.3282,-49.2667 -5.3719,-6.2175 -13.0286,-14.7652 -17.0149,-18.9949 -22.5725,-23.9503 -28.6321,-30.8 -37.6636,-42.5755 -5.4794,-7.144 -11.3489,-14.5643 -13.0432,-16.4892 -7.8194,-8.8839 -9.3475,-10.7615 -11.4354,-14.0526 -2.5911,-4.0843 -15.5115,-20.879 -18.3036,-23.7924 -1.0455,-1.0909 -3.5152,-4.5733 -5.4878,-7.7387 -4.245,-6.8113 -16.9535,-25.8934 -25.9931,-39.0296 -3.5406,-5.1451 -8.5367,-13.3762 -11.1023,-18.2914 -2.5655,-4.915 -6.2998,-11.1525 -8.2985,-13.861 -1.9985,-2.7086 -5.4524,-8.407 -7.6752,-12.6633 -2.2227,-4.2563 -5.1174,-9.3216 -6.4326,-11.2562 -2.6292,-3.8675 -7.2412,-12.0415 -15.8781,-28.1406 -3.1136,-5.804 -7.0879,-12.8289 -8.8316,-15.611 -3.6934,-5.8927 -27.0589,-53.8856 -30.7608,-63.1827 -1.3866,-3.4824 -4.9267,-11.3969 -7.8667,-17.5879 -2.9401,-6.1909 -6.7075,-15.3159 -8.3718,-20.2776 -1.6645,-4.9619 -4.6342,-12.1946 -6.5994,-16.0727 -1.9652,-3.8782 -5.0195,-11.8486 -6.7874,-17.7121 -2.9662,-9.8375 -4.6573,-14.5079 -7.9365,-21.9172 -0.6849,-1.5477 -3.4609,-10.7286 -6.1688,-20.4019 -2.708,-9.6733 -5.8642,-19.8039 -7.0139,-22.5125 -1.1498,-2.7085 -3.2909,-9.9899 -4.7582,-16.1808 -1.4672,-6.1909 -5.2576,-20.4371 -8.423,-31.6582 -3.1656,-11.221 -7.6735,-28.9496 -10.0178,-39.3968 -2.3444,-10.4472 -4.8552,-21.211 -5.5798,-23.9195 -0.7245,-2.7085 -2.6195,-13.4723 -4.211,-23.9195 -1.5915,-10.4472 -3.8343,-24.0602 -4.9838,-30.2511 -4.4851,-24.1551 -5.1197,-29.1976 -7.7024,-61.2058 -4.9941,-61.893 -6.4056,-112.0972 -4.4804,-159.3539 2.6957,-66.1686 6.2836,-106.4695 12.1815,-136.8259 1.0524,-5.417 2.983,-17.1305 4.2902,-26.03 1.3071,-8.8995 4.7884,-26.3115 7.736,-38.6933 2.9475,-12.3819 6.008,-25.9949 6.8008,-30.2512 0.7928,-4.2562 2.7653,-12.1708 4.3832,-17.5878 1.6181,-5.4171 4.8112,-16.6661 7.0959,-24.998 2.2849,-8.3319 6.3218,-21.9449 8.9713,-30.2511 2.6493,-8.3063 6.1926,-20.1073 7.874,-26.2244 1.6814,-6.1171 4.5002,-14.6648 6.2642,-18.9949 1.7639,-4.3301 4.2785,-11.6719 5.588,-16.3151 1.3097,-4.6432 4.1762,-11.9246 6.3702,-16.1808 2.194,-4.2563 5.2644,-11.908 6.8231,-17.0038 1.5587,-5.0959 5.0572,-13.6436 7.7746,-18.9949 2.7172,-5.3514 6.2897,-13.2122 7.9387,-17.4684 3.3015,-8.5211 4.8968,-12.0464 15.2804,-33.7687 6.7841,-14.192 9.4622,-19.2361 27.6412,-52.0601 11.3983,-20.5808 10.916,-19.743 15.2194,-26.4267 2.1336,-3.3135 5.168,-8.3789 6.7433,-11.2562 1.5754,-2.8773 3.929,-6.9326 5.2305,-9.0116 1.3014,-2.0791 6.1148,-9.99364 10.6964,-17.58794 12.5722,-20.8392 34.9833,-53.9009 49.8947,-73.6065 7.3199,-9.6733 13.6762,-17.9045 14.1249,-18.2914 1.3343,-1.1505 11.7384,-14.0376 20.2523,-25.0852 8.8102,-11.4321 21.7191,-25.9884 37.2209,-41.9706 5.6239,-5.7984 13.6214,-14.7686 17.772,-19.9341 7.9523,-9.8963 34.7661,-36.239 65.0595,-63.9168 9.9541,-9.0945 21.5806,-19.729 25.8369,-23.6322 4.2563,-3.9033 12.3485,-10.6004 17.9828,-14.8824 5.6343,-4.2822 13.2323,-10.3319 16.8844,-13.4438 11.9392,-10.1734 12.8816,-10.9202 20.3537,-16.1285 4.0656,-2.8339 9.2996,-6.8045 11.6312,-8.8235 6.7101,-5.8107 57.5863,-39.6781 68.3024,-45.4677 5.3399,-2.8851 12.3503,-7.159 15.5786,-9.4975 3.2282,-2.3384 6.37892,-4.2517 7.00152,-4.2517 0.6228,0 8.2841,-4.3038 17.0251,-9.5642 8.741,-5.2603 20.6415,-12.0042 26.4455,-14.9864 5.804,-2.9822 15.4178,-8.11 21.364,-11.3949 5.9462,-3.285 14.1773,-7.5651 18.2913,-9.5113 24.9925,-11.8226 34.612,-16.1976 37.7314,-17.1605 1.9346,-0.5973 8.2663,-3.313 14.0703,-6.0349 20.8423,-9.7747 60.8187,-25.4161 85.1253,-33.3067 30.6428,-9.9477 90.02,-27.2093 106.9342,-31.0869 5.4171,-1.2418 16.1808,-3.8457 23.9195,-5.7864 22.7885,-5.7146 83.7419,-16.2965 111.1553,-19.2971 55.1937,-6.0415 76.653,-7.1331 140.703,-7.157 49.078,-0.018 70.2773,0.5515 94.271,2.534 34.2437,2.8294 77.1189,7.511 85.8288,9.372 3.0955,0.6613 11.01,2.1803 17.5879,3.3754 29.9912,5.4495 36.676,6.7486 48.5425,9.4335 27.8206,6.2949 52.7629,12.6116 66.1304,16.7481 7.7386,2.3948 16.9195,4.9743 20.4019,5.7325 25.2513,5.4976 106.8245,34.6345 136.0503,48.5953 7.1144,3.3986 13.5255,6.1791 14.2471,6.1791 3.2029,0 50.2118,22.5236 65.4347,31.3522 5.6277,3.2637 12.7343,7.166 15.7924,8.6716 5.8624,2.8864 26.7186,14.889 58.3236,33.5647 29.486,17.4237 69.9726,45.199 95.4166,65.4594 38.3199,30.5134 38.3307,30.5226 67.2867,57.5001 7.6334,7.1117 16.4116,14.9031 19.507,17.3141 7.309,5.6928 51.3566,49.378 51.3566,50.934 0,0.6554 6.1734,7.762 13.7185,15.7927 27.5521,29.3244 37.4968,40.5718 44.0271,49.7935 3.6672,5.1784 8.5392,11.3149 10.8266,13.6365 5.4684,5.5499 31.5138,40.4094 41.5248,55.5776 4.3415,6.5779 10.9461,16.4326 14.6768,21.8995 3.7309,5.4669 7.9885,12.1151 9.4612,14.7738 1.4727,2.6587 4.4803,7.5569 6.6834,10.8845 2.2031,3.3278 4.0057,6.29954 4.0057,6.60394 0,0.3043 5.5774,9.9284 12.3943,21.3867 22.385,37.6262 59.3642,109.8822 59.3642,115.9953 0,0.8237 2.7552,6.9751 6.1227,13.6699 3.3675,6.6949 7.5287,16.4283 9.2471,21.63 1.7184,5.2015 4.8869,13.116 7.0412,17.5878 5.2101,10.8145 25.3231,72.044 33.1754,100.9944 1.2594,4.6432 2.8493,10.3416 3.5334,12.6632 6.4219,21.7979 18.8237,72.9132 21.8724,90.1501 2.9441,16.645 4.0548,22.9688 8.1372,46.3318 3.8077,21.7912 6.7019,48.9873 10.1821,95.678 2.65,35.5548 2.2541,137.5325 -0.664,170.9541 -4.6706,53.498 -9.9533,97.808 -12.0685,101.2306 -0.2649,0.4286 -2.1632,10.5834 -4.2183,22.5662 -4.3988,25.6476 -12.7755,61.7962 -20.7095,89.3682 -3.1177,10.8341 -6.8909,24.4471 -8.3852,30.2511 -1.4942,5.804 -4.5213,15.9346 -6.7268,22.5125 -2.2057,6.5779 -5.3059,16.3919 -6.8897,21.809 -1.5838,5.417 -4.2426,13.3316 -5.9087,17.5878 -1.6662,4.2563 -3.5644,9.6382 -4.2185,11.9598 -1.8041,6.4041 -5.4585,16.0412 -7.7984,20.5661 -1.1509,2.2258 -3.9529,9.0921 -6.2265,15.2585 -2.2736,6.1665 -6.4438,16.1411 -9.267,22.1658 -2.8232,6.0246 -6.3656,14.1199 -7.8722,17.9892 -2.5869,6.6447 -5.7308,13.4215 -16.971,36.5828 -8.5249,17.5663 -28.187,54.8135 -30.1395,57.0954 -1.0455,1.2217 -1.9008,2.6147 -1.9008,3.0953 0,0.4806 -1.8995,3.6885 -4.2211,7.1284 -2.3216,3.4399 -4.2211,6.6514 -4.2211,7.1365 0,0.4851 -3.7271,7.0415 -8.2823,14.5698 -4.5553,7.5283 -9.479,15.9038 -10.9416,18.6123 -9.6665,17.9012 -58.3425,86.7963 -71.3083,100.9286 -2.6755,2.9161 -8.2518,9.7803 -12.392,15.2535 -8.6424,11.4251 -22.5322,27.133 -37.8696,42.8265 -5.854,5.99 -13.8791,14.927 -17.8336,19.8603 -8.1064,10.1128 -36.8254,38.5307 -47.5024,47.0042 -3.8693,3.0708 -9.8844,8.3978 -13.3668,11.8378 -3.4824,3.4401 -12.3467,11.6385 -19.6984,18.2191 -7.3517,6.5805 -15.5829,13.9851 -18.2914,16.4549 -2.7085,2.4698 -10.0898,8.5173 -16.4029,13.4391 -6.313,4.9218 -15.779,12.4311 -21.0353,16.6874 -5.2564,4.2562 -14.0207,11.0307 -19.4764,15.0542 -12.9308,9.5364 -66.3253,45.4481 -67.5736,45.4481 -0.5302,0 -4.2371,2.1526 -8.2376,4.7834 -10.6225,6.9859 -33.2568,20.5431 -34.2976,20.5431 -0.4923,0 -1.8947,0.8922 -3.1164,1.9828 -1.2218,1.0906 -8.5529,5.3088 -16.2916,9.3739 -7.7387,4.065 -15.6656,8.4938 -17.6153,9.8417 -8.1325,5.6222 -58.6829,30.1268 -74.2152,35.9761 -4.8486,1.826 -11.2686,4.8685 -14.2664,6.7609 -2.998,1.8925 -11.1371,5.3615 -18.087,7.7088 -6.9499,2.3474 -15.8184,5.8664 -19.7078,7.8199 -3.8895,1.9535 -11.4113,4.8658 -16.7153,6.4718 -5.304,1.6058 -13.5858,4.4688 -18.404,6.3623 -4.8183,1.8933 -14.6323,4.9726 -21.809,6.8426 -7.1767,1.8701 -15.5568,4.4531 -18.6227,5.7402 -3.0658,1.287 -13.513,4.4369 -23.216,6.9999 -9.7029,2.5632 -22.9492,6.2893 -29.4362,8.2805 -6.4868,1.9911 -16.6175,4.5936 -22.5125,5.7831 -5.8949,1.1895 -16.0999,3.4835 -22.6778,5.0978 -18.3201,4.496 -27.7301,6.3958 -47.3745,9.5637 -9.9289,1.6011 -23.4342,3.8326 -30.0121,4.9589 -24.412,4.18 -32.4636,5.1219 -67.5374,7.9005 -34.2423,2.7129 -126.2283,4.6038 -158.9944,3.2685 z m 116.6846,-146.8933 c 59.9346,-3.5799 72.5426,-5.004 105.6261,-11.9308 5.0301,-1.0531 16.7437,-2.9996 26.03,-4.3256 9.2864,-1.3258 22.8995,-4.1527 30.2512,-6.282 7.3517,-2.1291 19.0652,-4.9319 26.03,-6.2283 6.9648,-1.2964 18.0452,-4.2058 24.623,-6.4652 6.5779,-2.2594 17.5769,-5.4272 24.4424,-7.0396 6.8653,-1.6123 15.7296,-4.3451 19.6984,-6.0725 3.9687,-1.7275 11.3314,-4.2986 16.3615,-5.7136 5.0302,-1.415 15.7939,-5.272 23.9195,-8.5711 8.1256,-3.2992 17.3065,-6.7829 20.402,-7.7418 3.0954,-0.9587 10.2324,-3.8775 15.8598,-6.486 5.6276,-2.6084 10.8578,-4.7426 11.6228,-4.7426 4.4915,0 88.1341,-41.9788 109.4652,-54.9388 5.6733,-3.4468 12.9547,-7.7963 16.1809,-9.6656 6.3842,-3.6989 47.3039,-30.7132 64.2573,-42.4213 5.804,-4.0082 16.2512,-11.8398 23.216,-17.4033 6.9648,-5.5637 14.6276,-11.6596 17.0286,-13.5466 11.5233,-9.0569 24.6383,-19.9724 33.0365,-27.4959 5.0936,-4.5631 12.6915,-11.1459 16.8843,-14.6283 9.9729,-8.2833 62.5303,-60.9736 69.6383,-69.8146 3.0372,-3.7777 8.1487,-9.7178 11.3587,-13.2002 3.2098,-3.4824 8.1921,-9.1808 11.0716,-12.6632 2.8795,-3.4824 5.6619,-6.6482 6.183,-7.0352 0.5212,-0.3869 5.0365,-6.0854 10.0339,-12.6632 4.9973,-6.5779 9.433,-12.2764 9.8569,-12.6633 5.9909,-5.4669 53.8421,-74.4379 64.0588,-92.3321 2.2631,-3.9637 6.7384,-11.5617 9.945,-16.8844 13.0289,-21.626 18.3768,-31.9981 44.1667,-85.6571 12.2678,-25.5248 21.9978,-49.8736 35.9846,-90.0499 10.3399,-29.7004 12.2195,-35.6399 16.031,-50.6531 2.1611,-8.5125 5.2025,-19.5929 6.7588,-24.623 1.5564,-5.0301 3.8325,-13.8944 5.0582,-19.6984 1.2256,-5.804 4.1532,-19.7336 6.5059,-30.9546 2.3527,-11.2211 4.8833,-23.2512 5.6235,-26.7336 3.3153,-15.5965 11.1056,-81.7421 14.1687,-120.301 3.1614,-39.799 -0.2949,-161.1753 -5.0282,-176.5711 -0.3588,-1.167 -2.2493,-16.4892 -4.2012,-34.0493 -1.952,-17.5602 -4.8145,-37.3543 -6.3609,-43.9867 -3.6223,-15.5347 -6.3616,-29.2315 -9.0608,-45.3027 -1.1893,-7.0816 -4.0836,-18.7951 -6.4316,-26.0301 -2.3482,-7.2348 -4.8997,-17.0857 -5.6702,-21.8908 -0.7704,-4.8051 -3.3424,-14.3026 -5.7155,-21.1054 -2.3732,-6.8029 -5.9188,-18.7006 -7.8792,-26.4393 -1.9604,-7.7386 -4.9999,-16.9195 -6.7545,-20.4019 -1.7544,-3.4824 -4.5407,-11.2762 -6.1918,-17.3195 -1.651,-6.0434 -4.6125,-14.1664 -6.5811,-18.0512 -1.9685,-3.8848 -4.8794,-11.2869 -6.4686,-16.4492 -1.5891,-5.1622 -4.9512,-13.5014 -7.4712,-18.5316 -2.5202,-5.0301 -5.3828,-11.3617 -6.3615,-14.0703 -1.9482,-5.3909 -24.7631,-53.1608 -30.24,-63.3163 -1.8781,-3.4823 -5.2755,-10.1306 -7.55,-14.7738 -2.2744,-4.6432 -6.416,-11.8298 -9.2036,-15.9704 -2.7875,-4.1407 -5.0683,-7.8206 -5.0683,-8.1778 0,-0.3573 -4.0306,-7.4168 -8.9569,-15.6877 -8.4855,-14.2466 -15.4335,-24.8359 -31.1015,-47.3999 -3.7614,-5.4171 -8.7427,-12.6984 -11.0697,-16.1808 -2.3268,-3.4824 -6.8255,-9.4975 -9.9971,-13.3668 -3.1716,-3.86934 -7.4828,-9.56784 -9.5807,-12.66334 -2.0979,-3.0954 -5.2508,-7.3168 -7.0063,-9.3809 -1.7556,-2.064 -5.7247,-7.0564 -8.8201,-11.0942 -3.0955,-4.0379 -11.01,-13.4598 -17.5879,-20.9377 -6.5779,-7.4779 -14.6735,-16.7317 -17.9901,-20.564 -8.4699,-9.7863 -56.1188,-57.7079 -67.513,-67.8992 -31.8122,-28.4542 -44.1136,-38.8346 -63.4137,-53.5113 -26.3083,-20.0061 -39.727,-29.7255 -48.0673,-34.8155 -3.4824,-2.1253 -6.6483,-4.2768 -7.0352,-4.7811 -1.3334,-1.738 -28.876,-19.3776 -42.9144,-27.4848 -7.7387,-4.469 -15.9698,-9.4396 -18.2914,-11.0459 -3.798,-2.6277 -12.9462,-7.5766 -33.7687,-18.2673 -6.0975,-3.1306 -27.3408,-13.2451 -42.9144,-20.4325 -2.7085,-1.25 -5.8743,-3.0152 -7.0351,-3.9228 -1.1608,-0.9075 -6.2261,-3.0203 -11.2563,-4.6949 -5.0301,-1.6748 -13.2612,-5.1251 -18.2914,-7.6676 -5.0301,-2.5425 -12.9446,-5.7216 -17.5878,-7.0646 -4.6432,-1.343 -12.2412,-4.2087 -16.8844,-6.3681 -4.6432,-2.1595 -12.4266,-4.9398 -17.2963,-6.1785 -4.8699,-1.2388 -12.2029,-3.7841 -16.2957,-5.6561 -7.6702,-3.5085 -11.4597,-4.6697 -28.3173,-8.6773 -5.417,-1.2879 -13.9648,-3.8388 -18.9949,-5.6688 -5.0301,-1.8299 -17.0602,-4.8878 -26.7335,-6.7951 -9.6734,-1.9074 -22.7431,-5.0318 -29.0439,-6.9433 -6.3007,-1.9114 -19.5972,-4.5316 -29.5477,-5.8227 -9.9503,-1.291 -27.2724,-4.1457 -38.4935,-6.3439 -25.5006,-4.9952 -42.7394,-6.7336 -83.7182,-8.4423 -42.0692,-1.7541 -89.815,-1.726 -133.6679,0.079 -40.8874,1.6827 -64.4021,4.0607 -88.3561,8.9358 -9.4441,1.922 -24.947,4.4908 -34.4509,5.7083 -9.504,1.2175 -23.7501,4.0664 -31.6582,6.3309 -7.9081,2.2643 -21.2521,5.4275 -29.6533,7.029 -8.4012,1.6016 -19.165,4.4316 -23.9195,6.2888 -4.7545,1.8573 -14.6596,4.7496 -22.0113,6.4273 -7.3517,1.6779 -17.2726,4.6065 -22.0462,6.5081 -4.7736,1.9016 -14.9042,5.5925 -22.5125,8.202 -30.3715,10.417 -45.1735,15.9915 -53.2299,20.047 -4.6432,2.3373 -10.2151,4.6775 -12.3822,5.2002 -8.0012,1.9304 -81.781,38.3549 -99.1496,48.9494 -4.8503,2.9586 -9.1045,5.3792 -9.4536,5.3792 -0.3492,0 -5.0394,2.8493 -10.4225,6.3317 -5.3833,3.4824 -10.3265,6.3316 -10.985,6.3316 -0.6585,0 -7.5124,4.3888 -15.2309,9.7528 -7.7186,5.3641 -18.1493,12.3325 -23.1795,15.4854 -10.2804,6.4438 -14.9238,9.8239 -50.28412,36.6033 -13.7456,10.4099 -27.5246,21.2495 -30.6201,24.0879 -3.0954,2.8384 -9.1714,8.2508 -13.502,12.0276 -4.3306,3.7767 -11.9286,10.4454 -16.8843,14.8191 -10.9077,9.627 -56.9559,55.1342 -66.7205,65.9368 -24.3651,26.9552 -31.2926,34.894 -44.425,50.9112 -14.6888,17.9159 -17.5098,21.5892 -37.6043,48.96784 -19.4876,26.5519 -46.0321,67.0669 -55.4096,84.5723 -2.0862,3.8944 -5.5368,10.0441 -7.6678,13.6661 -7.0645,12.0066 -13.2066,23.3218 -19.6137,36.1328 -3.4834,6.9648 -7.8515,15.5125 -9.7071,18.9949 -1.8554,3.4824 -3.4111,7.0426 -3.4568,7.9116 -0.1055,2.0114 -4.9551,12.4169 -8.7718,18.822 -1.6139,2.7085 -4.0345,8.1046 -5.3791,11.9914 -1.3446,3.8866 -4.0909,10.3156 -6.1031,14.2866 -2.0122,3.9709 -5.0251,11.2381 -6.6952,16.1491 -1.67,4.9113 -4.6112,12.4119 -6.5356,16.6681 -1.9244,4.2563 -5.2397,13.5137 -7.3673,20.5721 -2.1277,7.0582 -4.9551,14.9727 -6.2834,17.5879 -3.1989,6.2978 -7.7807,20.8406 -7.8035,24.768 -0.014,1.7211 -1.8367,7.7362 -4.0596,13.3668 -2.2227,5.6307 -5.1652,15.3029 -6.5389,21.4938 -2.3225,10.4679 -3.7971,16.3058 -10.6614,42.2109 -1.4355,5.4171 -3.2931,14.9145 -4.128,21.1054 -0.8351,6.191 -3.0224,18.2211 -4.861,26.7336 -4.8099,22.2709 -7.318,40.0737 -9.8118,69.648 -1.2072,14.3165 -2.9803,34.2611 -3.9404,44.3214 -2.3007,24.1096 -2.2522,101.4655 0.079,126.6327 1.0038,10.8341 2.7567,30.1456 3.8953,42.9144 2.4606,27.5943 5.836,52.8867 8.3562,62.6128 1.0025,3.8693 2.8952,13.3668 4.2061,21.1054 3.8249,22.5807 6.3545,34.4191 9.9211,46.432 1.8382,6.1909 4.63,17.2247 6.2042,24.5195 1.5742,7.2948 4.159,16.7297 5.7442,20.9664 1.5852,4.2367 4.4172,13.6113 6.2934,20.8323 1.8761,7.2212 4.7888,16.1481 6.4726,19.8376 1.6836,3.6895 5.2226,13.2984 7.8643,21.3532 2.6417,8.0548 5.6903,16.361 6.7747,18.4579 1.0844,2.097 3.6933,8.7984 5.7975,14.8918 2.1044,6.0936 4.9376,12.9834 6.2962,15.3109 1.3585,2.3275 3.787,7.7142 5.3968,11.9704 1.6096,4.2563 5.7519,13.4372 9.2049,20.402 3.4532,6.9648 7.8375,16.1456 9.7429,20.4019 1.9054,4.2563 4.7227,9.9547 6.2605,12.6633 1.5381,2.7085 3.7004,6.824 4.8052,9.1456 3.5816,7.5264 13.9897,26.5517 18.4736,33.7688 2.4039,3.8693 5.6102,9.5678 7.125,12.6632 1.5149,3.0955 4.3604,7.8442 6.3234,10.5527 1.9631,2.7086 4.8002,7.1407 6.3047,9.8493 2.9646,5.3368 11.2286,18.0642 20.7852,32.0118 7.7062,11.2469 49.113,66.759 54.749,73.3993 28.1653,33.1846 40.8349,46.9234 72.1999,78.2937 26.0543,26.0588 45.6692,44.5445 59.0274,55.6296 2.239,1.858 5.0882,4.3673 6.3316,5.5761 1.2434,1.2089 5.4084,4.6913 9.2553,7.7386 3.847,3.0475 8.2791,6.6011 9.8492,7.8971 1.5701,1.2959 12.6688,9.6749 24.6637,18.6198 11.9949,8.9451 22.56232,16.8966 23.48302,17.6703 0.9208,0.7736 6.9359,4.9065 13.3668,9.1843 6.431,4.2776 16.4415,11.0025 22.2454,14.9443 11.1524,7.5739 33.0088,20.8398 43.618,26.4741 3.4824,1.8496 8.1602,4.6328 10.3951,6.1852 6.5665,4.5609 30.0502,16.7377 51.6155,26.7635 8.0699,3.7517 20.1472,9.6085 26.8385,13.0151 6.6914,3.4064 13.0534,6.1936 14.138,6.1936 1.0845,0 7.0067,2.4666 13.1605,5.4815 6.1536,3.0148 13.8819,6.2057 17.1739,7.0908 3.2919,0.8852 11.2064,3.8611 17.5879,6.6129 6.3813,2.752 14.9673,5.8953 19.0799,6.9852 4.1126,1.0899 11.9183,3.8713 17.3462,6.1811 5.4278,2.3098 15.5832,5.5412 22.5675,7.1808 6.9842,1.6397 17.5402,4.7201 23.4576,6.8455 5.9174,2.1251 16.7741,4.9952 24.1258,6.3779 7.3517,1.3827 19.3818,4.2709 26.7335,6.4184 7.3518,2.1476 20.015,4.9259 28.1406,6.1741 20.6122,3.1664 39.0061,6.3322 46.1999,7.9518 13.0601,2.9404 37.9596,5.4566 74.9329,7.5722 21.2108,1.2136 40.148,2.4139 42.0827,2.6673 11.3062,1.4805 66.2775,0.4822 106.8353,-1.9404 z M 998.13608,2267.0674 c -11.608,-0.5487 -24.2712,-1.7954 -28.1406,-2.7703 -20.6394,-5.2002 -38.8243,-11.7704 -47.8142,-17.2749 -21.4671,-13.1446 -40.9112,-39.6197 -44.2609,-60.2654 -0.8272,-5.0985 -1.4757,-31.3072 -1.4816,-59.8817 -0.014,-62.3918 1.815,-57.3773 -21.3977,-58.6929 -17.3649,-0.984 -24.9551,-2.8529 -38.1691,-9.3975 -8.8219,-4.3694 -22.7569,-16.3728 -29.389,-25.3152 -4.8544,-6.5453 -12.9759,-27.9721 -14.9766,-39.512 -2.2587,-13.0295 -2.275,-376.3512 -0.017,-389.5167 0.8734,-5.0935 2.7454,-11.5563 4.16,-14.3617 1.4147,-2.8055 3.8061,-8.3482 5.3141,-12.3173 1.5082,-3.9691 4.8944,-10.5381 7.5248,-14.5977 2.6304,-4.0595 5.9896,-10.2303 7.4646,-13.7127 1.475,-3.4824 4.0605,-8.2312 5.7456,-10.5528 1.685,-2.3216 4.7933,-7.7034 6.9072,-11.9597 9.5322,-19.192 31.7186,-45.3897 62.9534,-74.3358 9.1682,-8.4965 10.0388,-11.9487 4.9246,-19.5284 -1.7412,-2.5806 -8.5478,-8.2952 -15.1256,-12.699 -6.5779,-4.4037 -12.2763,-8.3526 -12.6633,-8.775 -0.3869,-0.4225 -3.3729,-2.4981 -6.6357,-4.6126 -7.7565,-5.0269 -21.2616,-18.3964 -26.6478,-26.3803 -9.4792,-14.0506 -12.8344,-31.3527 -9.6367,-49.6909 2.4147,-13.8463 3.7422,-17.2807 10.4342,-26.9922 7.09,-10.2895 9.8214,-13.0986 18.4157,-18.9404 12.2461,-8.3242 20.4916,-10.454 40.1004,-10.3582 21.0199,0.1027 31.5852,2.1702 41.5073,8.1227 4.2563,2.5533 9.9548,5.7677 12.6633,7.143 4.935,2.506 9.7117,6.2399 25.6015,20.0128 4.6872,4.0628 9.3146,7.3869 10.283,7.3869 0.9684,0 2.6297,1.0579 3.6919,2.3509 3.7621,4.58 14.4182,10.3124 19.1702,10.3124 9.8133,0 15.31962,-10.7659 19.91612,-38.9397 1.5266,-9.3578 4.4133,-21.9949 6.4149,-28.0824 2.0015,-6.0873 4.6288,-17.0831 5.8386,-24.4349 5.4798,-33.3007 13.2324,-67.2626 21.0376,-92.1604 3.3963,-10.8341 7.43,-23.8139 8.9635,-28.8441 1.5335,-5.0301 4.1105,-12.9446 5.7266,-17.5878 1.6161,-4.6432 3.6137,-11.608 4.4388,-15.4774 0.8252,-3.8693 3.9606,-12.2961 6.9675,-18.7263 3.0066,-6.4302 5.4668,-12.4881 5.4668,-13.462 0,-3.4023 5.3299,-22.038 6.8146,-23.8271 0.8236,-0.9923 3.8048,-6.5235 6.6249,-12.2914 7.6301,-15.6052 17.7321,-24.80624 37.6897,-34.32754 15.8961,-7.5838 23.1839,-9.5345 42.4383,-11.3595 8.5924,-0.8146 22.6426,-3.4373 42.2109,-7.8796 11.0511,-2.5087 148.6128,-3.926 386.2296,-3.9792 299.5192,-0.068 386.3027,1.4864 430.5511,7.7068 8.1256,1.1422 22.0551,2.9976 30.9546,4.123 22.8064,2.8838 24.8458,3.3863 35.8793,8.8398 5.417,2.6774 11.9696,5.9113 14.561,7.1865 6.7552,3.3238 23.5896,21.72024 25.6299,28.00764 0.9396,2.8961 4.1206,8.748 7.0688,13.0042 3.881,5.6032 5.9596,10.6508 7.5321,18.2914 1.1947,5.804 4.1714,14.6227 6.615,19.5971 2.4436,4.9744 5.8844,14.4719 7.6462,21.1055 1.7618,6.6336 5.4127,18.7092 8.1133,26.8348 11.2501,33.8517 16.2704,50.4607 17.8622,59.0952 0.9274,5.0302 3.1581,14.5276 4.9571,21.1055 1.799,6.5778 4.879,22.0903 6.8446,34.4722 1.9655,12.3819 5.444,28.2751 7.7298,35.3184 2.286,7.0432 5.1592,19.5596 6.3849,27.8139 2.6546,17.8779 6.7658,29.6191 12.3136,35.1669 3.4832,3.4834 4.85,3.9571 9.5823,3.3224 5.6661,-0.7599 16.7716,-7.8365 29.284,-18.66 3.6125,-3.1248 8.784,-7.334 11.4925,-9.3541 2.7086,-2.0199 6.3228,-5.0035 8.0316,-6.6302 1.7089,-1.6265 3.5204,-2.9574 4.0257,-2.9574 0.5052,0 6.0719,-3.0987 12.3703,-6.8862 13.9765,-8.4042 22.5909,-10.4003 45.2204,-10.4786 19.8573,-0.069 27.9824,2.043 40.8038,10.6045 8.0402,5.3688 18.5823,17.5446 23.6121,27.2714 2.7772,5.3703 6.6391,23.9428 6.6391,31.9281 0,8.578 -5.0445,26.8929 -9.2359,33.5325 -6.9078,10.9426 -22.6459,25.6993 -37.3625,35.0328 -17.542,11.1254 -29.3812,22.2437 -29.3812,27.5923 0,3.9136 0.9223,4.9301 24.1179,26.5783 16.6057,15.498 39.54,43.7347 46.4929,57.2419 1.7198,3.3409 5.1124,9.2403 7.5393,13.1096 2.4268,3.8693 6.091,10.5176 8.1424,14.7738 2.0516,4.2563 4.9861,9.7899 6.5211,12.2969 3.7286,6.0898 14.2302,30.7762 15.7182,36.9492 0.6528,2.7085 1.1952,91.6869 1.2054,197.7298 0.02,205.7978 0.2167,199.3706 -6.573,214.4029 -9.2678,20.5193 -10.5615,22.545 -20.2101,31.6471 -15.8942,14.9937 -32.1651,21.5392 -57.0445,22.9482 -13.0294,0.7378 -14.8931,1.1829 -17.7705,4.2436 l -3.2145,3.4195 -0.7035,57.9288 -0.7035,57.929 -7.3525,15.124 c -5.7464,11.8206 -9.2807,17.0616 -16.1808,23.9948 -10.3655,10.4152 -29.2543,22.1718 -41.1901,25.6373 -40.7687,11.8369 -32.4994,11.1268 -130.1502,11.178 l -86.5324,0.045 -8.4421,-3.3016 c -4.6432,-1.816 -13.9289,-5.0594 -20.6348,-7.2077 -14.2043,-4.5505 -18.9336,-7.9415 -38.6894,-27.7411 -17.5057,-17.5446 -29.5057,-33.4391 -31.3803,-41.5652 -0.7629,-3.3073 -1.4026,-26.4744 -1.4216,-51.4824 -0.02,-26.8973 -0.5969,-46.5205 -1.4117,-48.0429 -0.7576,-1.4153 -3.1319,-3.1299 -5.2764,-3.8101 -4.4621,-1.4152 -686.2637,-1.34 -690.7257,0.076 -5.6945,1.8073 -6.1354,5.8137 -6.1354,55.7571 0,41.8484 -0.2919,48.3373 -2.3711,52.6974 -1.3042,2.7347 -2.8328,4.9723 -3.3968,4.9723 -0.5643,0 -2.9012,3.0076 -5.1934,6.6834 -7.2555,11.635 -26.2156,31.4875 -40.3302,42.2284 -5.295,4.0291 -12.543,7.7873 -19.6985,10.2137 -6.2266,2.1116 -15.1202,5.3086 -19.7634,7.1047 -8.3943,3.247 -8.8403,3.2668 -78.7936,3.5042 -38.6933,0.1309 -79.849,-0.2102 -91.45702,-0.7589 z M 1140.6819,2153.68 c 5.8956,-0.9774 15.117,-9.22 17.1265,-15.3091 1.4772,-4.4763 0.8751,-16.9052 -2.55,-52.634 -1.6358,-17.0643 6.0042,-15.6846 -86.8482,-15.6846 h -79.26292 l -3.5104,3.1658 -3.5104,3.1659 -0.4374,31.0456 -0.4373,31.0459 3.9623,5.9991 c 7.2545,10.9836 5.3975,10.7513 82.63612,10.3401 37.4962,-0.1995 70.2703,-0.7101 72.8317,-1.1347 z m 1090.0704,-0.4437 c 6.4584,-2.9336 12.8546,-9.8427 14.2597,-15.4033 1.7319,-6.8536 -1.7428,-55.474 -4.3206,-60.4591 -3.0974,-5.9898 -7.691,-8.7736 -14.3472,-8.6948 -48.1297,0.5697 -154.7195,2.2896 -154.9467,2.5001 -2.8334,2.6258 -4.062,9.7178 -4.9241,28.4207 -0.5528,11.995 -1.371,24.9748 -1.8181,28.8441 -0.9579,8.2894 1.6569,13.5382 9.8623,19.7967 l 5.1678,3.9419 30.4794,1.0347 c 16.7636,0.5692 40.61,0.8452 52.9918,0.6136 12.3819,-0.2317 25.3617,0.055 28.8441,0.6384 12.881,2.1556 32.6784,1.5258 38.7516,-1.233 z m -154.8315,-205.3236 c 56.732,-1.9918 189.4804,-5.8394 217.3861,-6.3007 27.7888,-0.4595 29.1771,-1.5076 31.0231,-23.4212 0.6239,-7.4055 2.119,-21.6956 3.3227,-31.7558 3.4128,-28.5245 4.8249,-52.7559 5.7805,-99.1956 1.2847,-62.4222 -1.0687,-108.0845 -7.1428,-138.5924 -1.0784,-5.4171 -3.002,-15.2311 -4.2744,-21.809 -2.3199,-11.9937 -3.2201,-13.7924 -17.9559,-35.8793 -17.4891,-26.2138 -46.1427,-55.7856 -62.7134,-64.7233 -2.8695,-1.5478 -7.39,-4.4792 -10.0455,-6.5141 -9.7329,-7.4587 -26.7755,-16.8361 -35.4897,-19.5276 -4.9204,-1.5199 -12.0063,-4.3904 -15.7465,-6.379 -3.74,-1.9887 -10.0242,-4.2465 -13.9647,-5.0174 -9.9282,-1.9424 -1099.0707,-1.885 -1109.1806,0.059 -4.0407,0.7767 -10.3723,2.927 -14.0703,4.7782 -3.6979,1.8514 -11.1556,4.8193 -16.5727,6.5954 -5.4171,1.776 -12.3818,4.8508 -15.4773,6.8326 -3.0955,1.9818 -7.8442,4.8122 -10.5527,6.2896 -2.70862,1.4774 -7.14072,4.4303 -9.84922,6.5621 -2.7086,2.1316 -7.3944,5.2603 -10.413,6.9526 -14.336,8.0366 -39.1718,32.9333 -56.2158,56.3537 -19.1577,26.3247 -21.3677,31.0049 -25.5798,54.1707 -1.2663,6.9648 -2.8899,15.5125 -3.608,18.9949 -7.0711,34.2922 -7.7031,160.9574 -1.0919,218.7931 0.7962,6.9648 2.2643,21.8988 3.2625,33.1867 3.0143,34.0883 2.3611,33.6293 47.9175,33.6759 17.7989,0.018 45.3415,0.6326 61.20582,1.3652 15.8642,0.7327 57.653,2.0495 92.8639,2.9264 35.211,0.877 79.849,2.0724 99.1956,2.6566 57.75,1.744 824.4241,0.8037 877.9865,-1.0768 z m -688.824,-104.2894 c -15.1541,-0.812 -16.7403,-1.1773 -23.2491,-5.3539 -7.6971,-4.9393 -11.7558,-8.9396 -19.407,-19.1279 -4.9281,-6.5622 -5.0999,-7.1937 -5.0999,-18.7356 0,-6.5695 0.7314,-13.3275 1.6251,-15.0178 2.998,-5.6693 14.157,-17.8312 20.9079,-22.7868 6.141,-4.5078 7.4971,-4.9096 16.5768,-4.9096 5.4387,0 14.8513,-0.9805 20.9169,-2.1792 9.6584,-1.9083 26.9335,-2.0788 139.068,-1.3725 70.4218,0.4436 150.2004,1.4354 177.2857,2.2041 27.0853,0.7685 68.2409,1.63 91.4569,1.9144 39.0239,0.478 42.8091,0.7446 50.1335,3.5309 8.8917,3.3828 20.9958,14.8816 24.5047,23.2793 2.5781,6.1704 2.6578,23.3199 0.1365,29.3012 -3.3319,7.9031 -12.8976,18.4336 -21.3201,23.4703 l -8.1475,4.8724 -42.3519,0.3517 c -112.9774,0.9379 -408.6703,1.3286 -423.0362,0.559 z m -332.6795,-54.5062 c -1.5477,-0.4001 -7.8986,-3.1767 -14.1131,-6.1704 -19.9758,-9.6234 -31.4686,-23.514 -39.3093,-47.5108 -6.01872,-18.421 1.4645,-45.2834 17.4386,-62.5994 6.457,-6.9993 10.4544,-9.7502 22.617,-15.5645 14.4741,-6.919 15.0452,-7.0637 28.1564,-7.1249 12.165,-0.056 14.4053,0.3739 24.623,4.7344 19.7534,8.4301 29.6636,17.7028 39.0285,36.5185 l 5.9807,12.0163 v 16.9368 16.9367 l -5.6281,11.1928 c -8.175,16.2577 -18.8079,27.0656 -34.1163,34.6772 -11.9744,5.954 -12.7252,6.1314 -27.0895,6.404 -8.1256,0.1542 -16.0402,-0.046 -17.5879,-0.4467 z m 1078.4882,-1.6595 c -22.2201,-9.079 -34.3006,-19.9475 -43.924,-39.5177 -5.8614,-11.9195 -5.9296,-12.2337 -5.9773,-27.5344 -0.048,-15.3481 0,-15.5808 5.9021,-27.8623 7.8472,-16.3337 18.3299,-27.4613 31.9325,-33.8978 16.6186,-7.8636 19.259,-8.5766 31.788,-8.5842 10.833,0 13.2593,0.5328 25.2873,5.6209 17.3093,7.3222 31.3531,19.9252 37.2304,33.4106 2.1095,4.8402 4.7299,10.7955 5.8232,13.234 2.7601,6.1567 2.6723,29.3962 -0.1309,34.7722 -1.156,2.2166 -2.1018,4.6042 -2.1018,5.3059 0,0.7018 -1.9998,5.3775 -4.4441,10.3905 -6.1967,12.709 -17.5303,23.1778 -33.1768,30.6452 -11.7633,5.6142 -13.0061,5.9005 -27.1025,6.244 -11.7146,0.2855 -16.0848,-0.1756 -21.1054,-2.2269 z m -46.2471,-432.2863 c 3.7566,-0.9674 5.5804,-2.4526 6.8881,-5.6094 1.586,-3.8291 1.1555,-6.5318 -3.977,-24.9655 -3.1655,-11.3694 -7.1095,-28.9028 -8.7645,-38.9631 -1.6549,-10.0602 -4.5005,-24.3064 -6.3235,-31.6581 -1.8228,-7.3518 -4.3827,-20.3316 -5.6887,-28.8442 -1.3059,-8.5125 -5.0729,-24.025 -8.3711,-34.4722 -3.2983,-10.4472 -6.4578,-21.16 -7.021,-23.8062 -0.5634,-2.6462 -2.8321,-9.0595 -5.0415,-14.2515 -2.2093,-5.1923 -5.5658,-15.3738 -7.4587,-22.6257 -4.8902,-18.7363 -11.5027,-31.1248 -22.2049,-41.6015 -4.8978,-4.7946 -10.6876,-9.3851 -12.8661,-10.201 -5.966,-2.2344 -781.1573,-2.0688 -787.6351,0.1683 -2.6304,0.9084 -8.8056,5.1822 -13.7225,9.4974 -7.0876,6.2202 -10.1729,10.3235 -14.8922,19.8055 -3.2739,6.5779 -7.1112,17.0251 -8.5272,23.216 -1.416,6.1909 -4.413,15.5956 -6.6598,20.8994 -2.2468,5.3038 -5.2553,14.1681 -6.6856,19.6984 -1.4302,5.5304 -4.7905,16.7034 -7.4674,24.829 -2.6767,8.1256 -5.3254,18.8894 -5.8861,23.9195 -0.5608,5.0302 -3.4172,19.9095 -6.3477,33.0652 -2.9304,13.1558 -5.7536,26.7688 -6.274,30.2512 -2.2322,14.9432 -5.492,29.7423 -9.3322,42.3668 -6.1648,20.2671 -5.2696,27.6223 3.6253,29.7855 5.4789,1.3325 945.4365,0.8342 950.6334,-0.5038 z"
     id="path1"
     inkscape:export-filename="cochefindmypark"
     inkscape:export-xdpi="96"
     inkscape:export-ydpi="96" />
</svg>
